<?xml version="1.0" encoding="UTF-8"?>
<svg version="1.1" xmlns="http://www.w3.org/2000/svg" width="1080" height="1920">
<path d="M0 0 C356.4 0 712.8 0 1080 0 C1080 633.6 1080 1267.2 1080 1920 C723.6 1920 367.2 1920 0 1920 C0 1286.4 0 652.8 0 0 Z " fill="#FEFEFE" transform="translate(0,0)"/>
<path d="M0 0 C1.6034737 2.24544415 3.06855003 4.46218197 4.5 6.8125 C5.2798934 8.06985289 6.06111206 9.32638486 6.84375 10.58203125 C7.18599609 11.14124268 7.52824219 11.7004541 7.88085938 12.27661133 C9.16622522 14.25597379 10.56728217 16.12532254 12 18 C15.79376769 15.96222031 19.58461043 13.91905534 23.375 11.875 C24.43589844 11.30523438 25.49679687 10.73546875 26.58984375 10.1484375 C28.16572266 9.29765625 28.16572266 9.29765625 29.7734375 8.4296875 C31.34109863 7.58422363 31.34109863 7.58422363 32.94042969 6.72167969 C36.69603277 4.60832883 40.29405842 2.28533099 43.86572266 -0.12451172 C46 -1 46 -1 48.15332031 -0.34643555 C51.09855755 1.80097103 52.46669744 4.90151271 54.125 8.0625 C54.91886138 9.5256695 55.71449361 10.98787931 56.51171875 12.44921875 C57.12539307 13.58109619 57.12539307 13.58109619 57.75146484 14.73583984 C59.73337587 18.32994287 61.83634682 21.84974105 63.9375 25.375 C67.30416675 31.05390228 70.56797809 36.77823957 73.75 42.5625 C77.63956307 49.62901671 81.66695123 56.6061322 85.75 63.5625 C90.59676179 71.82294759 95.34311723 80.13106191 100 88.5 C104.57566844 96.72202399 109.2357073 104.885814 114 113 C119.37196793 122.14913289 124.59076525 131.37403131 129.75 140.64453125 C133.74964539 147.8135385 137.84353527 154.92089405 142 162 C147.50291065 171.3736676 152.86748182 180.81725685 158.14990234 190.31689453 C160.91882261 195.29557293 163.71521382 200.24959397 166.61303711 205.15429688 C181.22741135 230.00402176 182.79303565 263.06635093 176.44921875 290.86328125 C171.07788938 311.2323268 159.85869196 329.12432344 147.31811523 345.77392578 C141.56888558 353.44735244 136.49087066 361.46456417 131.46777344 369.625 C129.00942459 373.60284724 126.50219934 377.54965026 124 381.5 C122.99587946 383.08970842 121.99197293 384.67955203 120.98828125 386.26953125 C119.02888348 389.37207035 117.06786085 392.47357282 115.10546875 395.57421875 C110.17175501 403.37301705 105.25782982 411.18334451 100.3762207 419.01489258 C95.05316247 427.55417463 89.69580284 436.06359745 84.20068359 444.49316406 C78.92315891 452.61392368 73.82607436 460.84767689 68.703125 469.06640625 C65.42383582 474.32629811 62.12524481 479.573626 58.8125 484.8125 C58.32700684 485.58037842 57.84151367 486.34825684 57.34130859 487.1394043 C55.41544914 490.18422227 53.48846967 493.22833067 51.56152344 496.27246094 C45.51250591 505.83064482 39.49030179 515.40488796 33.5 525 C27.51141771 534.5923578 21.49053904 544.16355736 15.44287109 553.71875 C13.98751567 556.01973833 12.53440882 558.32213105 11.08203125 560.625 C3.42128578 572.77110497 -4.25201528 584.90930552 -12 597 C-12.43393066 597.67836914 -12.86786133 598.35673828 -13.31494141 599.05566406 C-14.38984457 600.72952492 -15.47563422 602.39638183 -16.5625 604.0625 C-17.12066406 604.91972656 -17.67882812 605.77695313 -18.25390625 606.66015625 C-20.27975395 609.3748828 -22.58221013 611.63163037 -25 614 C-26.07368357 615.28238552 -27.13709918 616.57347507 -28.1875 617.875 C-34.35696707 624.89951048 -41.92737026 629.16411372 -50.25 633.1875 C-50.90403809 633.50847656 -51.55807617 633.82945312 -52.23193359 634.16015625 C-64.01818588 639.63871194 -75.43784798 641.59499065 -88.35888672 641.45410156 C-89.83876515 641.45296984 -91.31864581 641.45361327 -92.79852295 641.45587158 C-96.76884473 641.45700701 -100.73867112 641.43369073 -104.70887899 641.40557575 C-108.8754832 641.38036382 -113.04210203 641.37820465 -117.20877075 641.37347412 C-125.07784054 641.36110194 -132.9466848 641.32835938 -140.81565583 641.28807616 C-149.78312977 641.24317786 -158.75061516 641.22132626 -167.71817374 641.20129442 C-186.14557643 641.15962077 -204.57277001 641.08938228 -223 641 C-222.99903855 641.95329067 -222.99807711 642.90658134 -222.99708652 643.88875961 C-222.99370837 647.49988395 -222.99163603 651.11100816 -222.98991489 654.72213364 C-222.98900397 656.27114002 -222.98776078 657.82014625 -222.98614979 659.36915207 C-222.97248071 672.87187605 -223.10899973 686.36667957 -223.37231445 699.8671875 C-223.43890364 703.32284228 -223.49796547 706.77857766 -223.55664062 710.234375 C-223.75495822 721.1847776 -223.99354788 732.08833017 -225 743 C-230.36715066 738.42538187 -233.23592241 732.63795881 -236.5625 726.5 C-237.81439576 724.22877605 -239.06701076 721.95794841 -240.3203125 719.6875 C-240.94196289 718.55570313 -241.56361328 717.42390625 -242.20410156 716.2578125 C-249.16480773 703.63088711 -256.44480379 691.19682309 -263.87890625 678.84375 C-264.57401683 677.68722431 -265.26904494 676.53064904 -265.96398926 675.37402344 C-267.64185389 672.58219657 -269.32053806 669.79086617 -271 667 C-271.02283554 667.77514954 -271.04567108 668.55029907 -271.06919861 669.34893799 C-271.2864297 676.70337286 -271.50677236 684.05770518 -271.73049068 691.41194534 C-271.84536159 695.1915747 -271.95908693 698.97123084 -272.07006836 702.75097656 C-272.17749112 706.40801454 -272.28808737 710.06494475 -272.40075874 713.72182465 C-272.44291591 715.1074163 -272.48398614 716.49304153 -272.5238781 717.87870026 C-272.76666645 726.28255427 -273.19990839 734.62990474 -274 743 C-279.37787798 738.39183713 -282.37866328 732.55626871 -285.8125 726.4375 C-286.8101664 724.68366728 -287.80783943 722.92983831 -288.80586243 721.1762085 C-289.84700018 719.34381098 -290.88438869 717.50933523 -291.92089844 715.67431641 C-294.58035279 710.96892478 -297.26821644 706.27995085 -299.95410156 701.58959961 C-301.95907763 698.0873082 -303.9607714 694.58316444 -305.9609375 691.078125 C-306.29391846 690.49465805 -306.62689941 689.9111911 -306.9699707 689.31004333 C-308.31686146 686.94982902 -309.66361541 684.58953665 -311.01037598 682.22924805 C-320.34615269 665.86822884 -329.71655789 649.52788272 -339.14111328 633.21777344 C-342.88978034 626.72874904 -346.63308667 620.2366305 -350.37744141 613.74511719 C-353.48818339 608.35251686 -356.60013327 602.96062178 -359.71484375 597.5703125 C-366.1701927 586.39550676 -372.60293379 575.20825292 -379 564 C-384.38061416 554.57455534 -389.77230232 545.15562525 -395.1875 535.75 C-395.79916016 534.68523438 -396.41082031 533.62046875 -397.04101562 532.5234375 C-397.61916016 531.52054688 -398.19730469 530.51765625 -398.79296875 529.484375 C-399.3348584 528.53884766 -399.87674805 527.59332031 -400.43505859 526.61914062 C-401.86110355 524.23246196 -403.39990078 521.98269959 -404.98828125 519.703125 C-406.75351999 516.87605852 -406.99943439 516.02652432 -407.07421875 512.51953125 C-405.76969666 508.24544252 -403.97502582 504.58483622 -401.8125 500.6875 C-401.37397705 499.87700195 -400.9354541 499.06650391 -400.48364258 498.23144531 C-399.51702192 496.44614422 -398.54602745 494.66320618 -397.57128906 492.88232422 C-395.92317834 489.85908071 -394.29913337 486.82384434 -392.6796875 483.78515625 C-387.08323641 473.30080574 -381.39983541 462.87932931 -375.5 452.5625 C-370.14332916 443.19056715 -365.15552455 433.65717422 -360.23266602 424.05151367 C-355.96640322 415.76458373 -351.46123176 407.64639676 -346.82421875 399.5625 C-342.86844718 392.63029836 -339.14602004 385.59945318 -335.5 378.5 C-331.31616278 370.35385244 -326.98667781 362.32299662 -322.4375 354.375 C-317.56760494 345.86526123 -312.94442788 337.25810594 -308.44458008 328.54760742 C-304.61670008 321.14754203 -300.66755626 313.82173254 -296.66015625 306.51757812 C-293.83214612 301.36127169 -291.02177976 296.19610325 -288.23828125 291.015625 C-287.92131287 290.42578323 -287.60434448 289.83594147 -287.277771 289.22822571 C-285.72716022 286.34150877 -284.17843479 283.45379254 -282.63134766 280.56518555 C-282.07108887 279.52144775 -281.51083008 278.47770996 -280.93359375 277.40234375 C-280.1919397 276.01776978 -280.1919397 276.01776978 -279.43530273 274.60522461 C-278.72482788 273.31563843 -278.72482788 273.31563843 -278 272 C-277.48574463 271.06357666 -276.97148926 270.12715332 -276.44165039 269.16235352 C-275.96590576 268.44877686 -275.49016113 267.7352002 -275 267 C-274.34 267 -273.68 267 -273 267 C-272.83743914 286.01461861 -273.16611201 305.00083053 -273.64428711 324.00854492 C-273.9087098 334.67594791 -274.0685747 345.3290145 -274 356 C-273.4126709 354.90051025 -273.4126709 354.90051025 -272.81347656 353.77880859 C-270.95995465 350.31035297 -269.1053938 346.84245454 -267.25 343.375 C-266.91086578 342.74119415 -266.57173157 342.10738831 -266.22232056 341.45437622 C-261.26608393 332.19522706 -256.26311769 322.96322483 -251.21655273 313.75292969 C-248.02102101 307.90787995 -244.8976495 302.02895515 -241.8125 296.125 C-238.64047996 290.07237777 -235.43370491 284.04168945 -232.125 278.0625 C-231.76768799 277.40588379 -231.41037598 276.74926758 -231.04223633 276.07275391 C-229.05014162 272.50983352 -226.93255305 269.81376899 -224 267 C-223.84733278 289.00052044 -224.25209214 310.96192011 -224.86883545 332.95275879 C-224.96125447 336.29709497 -225.04840197 339.64156062 -225.13556576 342.98603725 C-225.22167907 346.26787037 -225.31077219 349.54961752 -225.40075874 352.83134651 C-225.44262303 354.3679797 -225.48369737 355.90463466 -225.5238781 357.44131279 C-225.58059296 359.59044407 -225.64127126 361.73943183 -225.70288086 363.88842773 C-225.73619003 365.09699936 -225.76949921 366.30557098 -225.80381775 367.55076599 C-226.08994141 374.03978881 -226.56793722 380.51905827 -227 387 C-182.45 386.67 -137.9 386.34 -92 386 C-100.02607761 371.66771856 -108.0559594 357.39058229 -116.3671875 343.23046875 C-120.6408988 335.92361281 -124.82847813 328.56813358 -129.01794434 321.21282959 C-133.66926978 313.04912488 -138.37126662 304.91712706 -143.125 296.8125 C-147.80889384 288.82477639 -152.37839003 280.78203216 -156.875 272.6875 C-161.77481682 263.87044994 -166.82875564 255.16053094 -172 246.5 C-177.78036914 236.81933857 -183.37799847 227.05667942 -188.85375977 217.20092773 C-193.92043357 208.09644493 -199.15807223 199.09857935 -204.42578125 190.109375 C-208.82016978 182.6094244 -213.17244398 175.0852301 -217.49975586 167.54638672 C-220.51280275 162.2972896 -223.54730334 157.06481582 -226.6484375 151.8671875 C-227.21481934 150.90707764 -227.78120117 149.94696777 -228.36474609 148.95776367 C-229.42633893 147.15933222 -230.49898618 145.36736354 -231.58447266 143.58325195 C-232.28515869 142.38768677 -232.28515869 142.38768677 -233 141.16796875 C-233.61875 140.13579224 -233.61875 140.13579224 -234.25 139.08276367 C-235.26570851 136.26212263 -235.05691557 134.79604765 -234 132 C-231.98828125 130.38525391 -231.98828125 130.38525391 -229.3125 128.9765625 C-228.31637695 128.43821777 -227.32025391 127.89987305 -226.29394531 127.34521484 C-225.20694336 126.77754395 -224.11994141 126.20987305 -223 125.625 C-220.70122759 124.38371579 -218.40440456 123.13881585 -216.109375 121.890625 C-215.51936707 121.57165253 -214.92935913 121.25268005 -214.32147217 120.92404175 C-208.18565239 117.59325472 -202.2155006 114.00071322 -196.25 110.375 C-180.04112866 100.57104458 -163.55165644 91.30193377 -147.01342773 82.06787109 C-140.4874586 78.41615369 -134.00850894 74.69895324 -127.57641602 70.88476562 C-112.19586814 61.76874105 -96.64925302 52.93090614 -81.125 44.0625 C-80.54694611 43.73226837 -79.96889221 43.40203674 -79.37332153 43.0617981 C-73.44692049 39.67665167 -67.51877657 36.29459102 -61.5871582 32.91859436 C-50.0550953 26.35424779 -38.53950776 19.76764785 -27.125 13 C-26.23337158 12.47237061 -25.34174316 11.94474121 -24.4230957 11.40112305 C-19.58360961 8.53666646 -19.58360961 8.53666646 -14.75537109 5.65332031 C-12.7794722 4.46841851 -10.79701339 3.29539453 -8.8125 2.125 C-7.21341797 1.16980469 -7.21341797 1.16980469 -5.58203125 0.1953125 C-3 -1 -3 -1 0 0 Z " fill="#27AC38" transform="translate(901,756)"/>
<path d="M0 0 C1.82047852 -0.00580078 1.82047852 -0.00580078 3.67773438 -0.01171875 C4.84240234 -0.01042969 6.00707031 -0.00914062 7.20703125 -0.0078125 C8.25995361 -0.00668457 9.31287598 -0.00555664 10.39770508 -0.00439453 C12.84920055 0.10930921 14.83958953 0.47572635 17.1875 1.125 C19.20666119 1.21714964 21.22874337 1.25500931 23.25 1.25 C24.81427734 1.25386719 24.81427734 1.25386719 26.41015625 1.2578125 C29.27430628 1.24637157 29.27430628 1.24637157 32.1875 0.125 C36.78687456 -0.14494995 41.39359946 -0.10681983 46 -0.125 C47.23298828 -0.145625 48.46597656 -0.16625 49.73632812 -0.1875 C56.43349166 -0.21471042 62.7955678 0.13869629 69.39961529 1.18895054 C83.26550706 3.37121759 96.96896391 3.64859618 110.98046875 3.75390625 C113.7479296 3.78350383 116.51533954 3.8171534 119.28276062 3.85023499 C127.37939599 3.94332767 135.47615646 4.01276698 143.57305145 4.0787735 C149.56713927 4.12765213 155.56118687 4.18077712 161.55523682 4.23406982 C185.19753483 4.44325089 208.83995038 4.63771617 232.48242188 4.82617188 C234.32259144 4.84088284 234.32259144 4.84088284 236.19993615 4.85589099 C250.07588616 4.96668675 263.9518535 5.07389594 277.82788086 5.17456055 C289.04965394 5.25601377 300.27135516 5.34405354 311.49301881 5.43942744 C317.37243667 5.48912287 323.25183682 5.53557464 329.13134193 5.5737133 C334.62087845 5.60933126 340.11027933 5.65362749 345.59969711 5.70427513 C347.59251035 5.72116536 349.58535262 5.73499898 351.57821083 5.74529648 C382.63208633 5.91113462 414.91952595 8.38658676 439.1875 30.125 C439.86032281 31.45523746 440.52717994 32.7885122 441.1875 34.125 C442.33992187 35.00865234 442.33992187 35.00865234 443.515625 35.91015625 C446.91034921 38.72420395 448.7294769 41.78772642 450.9375 45.5625 C451.4001123 46.3361792 451.86272461 47.1098584 452.33935547 47.90698242 C453.96723931 50.63948295 455.57814215 53.38154922 457.1875 56.125 C458.12480957 57.71586426 458.12480957 57.71586426 459.08105469 59.33886719 C464.85997846 69.14868177 470.60411078 78.97876659 476.33886719 88.81445312 C478.4529556 92.4400439 480.56907153 96.06444334 482.6875 99.6875 C483.03193146 100.27660156 483.37636292 100.86570312 483.73123169 101.47265625 C491.71966156 115.12260721 499.93471343 128.63363735 508.1875 142.125 C511.85497948 140.12648807 515.52142358 138.1260845 519.1875 136.125 C520.32574219 135.50383301 521.46398437 134.88266602 522.63671875 134.24267578 C525.69442204 132.57276812 528.74941206 130.89796185 531.80322266 129.22094727 C533.05865344 128.53239602 534.31483894 127.84521906 535.57177734 127.15942383 C537.43524733 126.14239086 539.29645257 125.12138863 541.15625 124.09765625 C541.75477783 123.76859283 542.35330566 123.43952942 542.9699707 123.10049438 C547.81687487 120.40307023 552.43026979 117.41829 556.99804688 114.27514648 C557.72056641 113.89559814 558.44308594 113.5160498 559.1875 113.125 C560.1775 113.455 561.1675 113.785 562.1875 114.125 C556.23339611 126.34029622 549.80881028 138.2593776 543.1875 150.125 C553.59613743 145.10980188 563.61811924 139.67078284 573.52001953 133.72216797 C576.70371441 131.8159139 579.89615539 129.92459583 583.08984375 128.03515625 C583.69387527 127.6777536 584.2979068 127.32035095 584.92024231 126.95211792 C586.14850674 126.22538232 587.37678334 125.49866728 588.60507202 124.77197266 C591.53447941 123.03828257 594.46264591 121.3025077 597.390625 119.56640625 C598.38739258 118.97545166 599.38416016 118.38449707 600.41113281 117.77563477 C602.25619696 116.67868799 604.07456069 115.53548842 605.86230469 114.34741211 C606.62961914 113.94401611 607.39693359 113.54062012 608.1875 113.125 C609.1775 113.455 610.1675 113.785 611.1875 114.125 C603.02591221 131.13253232 593.74610838 147.56700604 584.0625 163.75 C579.68520521 171.07473894 575.7674171 178.60847967 571.85888672 186.19140625 C565.36784517 198.73152852 558.33459299 210.96463504 551.26171875 223.18359375 C545.019482 233.99092215 539.05706705 244.92512203 533.21569824 255.95257568 C527.79537305 266.17997291 522.20329105 276.29232849 516.46875 286.34765625 C512.79980556 292.7850469 509.21344548 299.26750008 505.625 305.75 C500.95730882 314.16913632 496.26512686 322.57306294 491.5 330.9375 C491.01909912 331.7845752 490.53819824 332.63165039 490.04272461 333.50439453 C489.5916333 334.29313965 489.14054199 335.08188477 488.67578125 335.89453125 C488.09630737 336.90930542 488.09630737 336.90930542 487.50512695 337.94458008 C487.07031006 338.66411865 486.63549316 339.38365723 486.1875 340.125 C485.64150146 341.18259521 485.09550293 342.24019043 484.53295898 343.32983398 C482.1875 346.125 482.1875 346.125 478.56933594 346.95800781 C477.10462339 347.02764591 475.63818854 347.06559819 474.171875 347.078125 C473.37673492 347.10860428 472.58159485 347.13908356 471.76235962 347.17048645 C469.1542026 347.26506492 466.54675943 347.31972436 463.9375 347.375 C462.11919472 347.43485492 460.30099361 347.49795737 458.48291016 347.56420898 C455.71521055 347.66436538 452.94762978 347.76213568 450.17947388 347.84886169 C441.957914 348.10685585 433.76738378 348.61858565 425.5625 349.1875 C415.89609562 349.82402743 406.24586819 350.29459416 396.5625 350.5625 C382.23504746 350.96570238 367.93457055 351.75332494 353.625 352.5625 C352.44397705 352.62910828 351.2629541 352.69571655 350.04614258 352.76434326 C340.35313615 353.31187072 330.66051347 353.86603147 320.96826172 354.42675781 C316.49992485 354.68488174 312.03136565 354.93869724 307.5625 355.1875 C306.8632843 355.22655457 306.1640686 355.26560913 305.44366455 355.30584717 C288.52963956 356.23939931 271.60018805 356.83384844 254.67138672 357.42797852 C253.58724991 357.46713379 252.5031131 357.50628906 251.38612366 357.54663086 C249.35890658 357.61974145 247.33159631 357.69033366 245.30418396 357.7578125 C239.97601182 357.95187835 234.7150634 358.34567642 229.41404724 358.9120636 C226.58977413 359.18216366 223.79721264 359.23824018 220.9609375 359.22265625 C219.91035156 359.21943359 218.85976563 359.21621094 217.77734375 359.21289062 C216.71644531 359.20451172 215.65554688 359.19613281 214.5625 359.1875 C213.46292969 359.18298828 212.36335938 359.17847656 211.23046875 359.17382812 C208.54941997 359.16217139 205.86849068 359.14581017 203.1875 359.125 C203.1875 358.465 203.1875 357.805 203.1875 357.125 C202.1975 357.455 201.2075 357.785 200.1875 358.125 C197.13550659 358.45700446 194.06637286 358.55108604 191 358.6875 C190.08903564 358.7299585 189.17807129 358.77241699 188.23950195 358.81616211 C177.22543014 359.27892259 166.20870138 359.21853415 155.1875 359.125 C158.75204177 355.25166553 162.34133818 352.65792113 167 350.1875 C168.43607151 349.40319051 169.87088838 348.61658099 171.3046875 347.828125 C172.08553711 347.39951172 172.86638672 346.97089844 173.67089844 346.52929688 C178.36677033 343.9089384 182.98971125 341.16310092 187.625 338.4375 C195.86235524 333.6069763 204.1514678 328.88550367 212.5 324.25 C222.94971824 318.44561574 233.25012748 312.41408672 243.50708008 306.27783203 C244.58368896 305.63442871 245.66029785 304.99102539 246.76953125 304.328125 C247.72061768 303.75739258 248.6717041 303.18666016 249.65161133 302.59863281 C251.79875354 301.35090485 253.95098714 300.20168128 256.1875 299.125 C247.39617489 283.37692204 238.32182555 267.81145977 229.08935547 252.31884766 C226.30012659 247.63480501 223.52342129 242.94341513 220.75 238.25 C220.23928955 237.38632812 219.7285791 236.52265625 219.20239258 235.6328125 C216.08324003 230.35239901 212.978672 225.06361997 209.8828125 219.76953125 C209.50976486 219.13190857 209.13671722 218.49428589 208.75236511 217.83734131 C206.92422326 214.71249677 205.09750536 211.58683949 203.27368164 208.45947266 C199.16353112 201.41722238 199.16353112 201.41722238 194.89697266 194.46923828 C194.33904778 193.58106163 194.33904778 193.58106163 193.76985168 192.67494202 C192.73590011 191.03666354 191.69304758 189.40401244 190.6496582 187.77172852 C189.1875 185.125 189.1875 185.125 189.1875 182.125 C186.39667101 183.52041449 186.37661426 184.9548725 185.3125 187.875 C181.71432405 196.78127225 176.71635112 204.87925982 171.89501953 213.16552734 C168.93909849 218.28872936 166.06672991 223.45843485 163.1875 228.625 C159.39869812 235.41568285 155.58669864 242.19006588 151.69970703 248.92504883 C146.21573697 258.42918085 140.99365978 268.05475475 135.8522644 277.74783325 C131.5212428 285.90214701 127.02614808 293.93398319 122.3125 301.875 C116.81168937 311.14772792 111.69873493 320.58286351 106.6875 330.125 C101.11625561 340.73275926 95.36958826 351.18283285 89.23681641 361.48071289 C86.22287081 366.56155151 83.32900716 371.67772294 80.5703125 376.90234375 C79.9815332 378.01609375 79.39275391 379.12984375 78.78613281 380.27734375 C77.66150327 382.42083031 76.54830282 384.5703638 75.44824219 386.7265625 C74.94711914 387.68175781 74.44599609 388.63695312 73.9296875 389.62109375 C73.27782471 390.89231079 73.27782471 390.89231079 72.61279297 392.18920898 C71.1875 394.125 71.1875 394.125 69.19458008 394.97412109 C65.96409678 395.2169673 63.84266636 393.78882028 61 392.3125 C60.4006665 392.00352783 59.80133301 391.69455566 59.18383789 391.3762207 C53.32001059 388.30305064 47.62381458 384.931378 41.9621582 381.50268555 C38.4472154 379.38505437 35.07767814 377.49755798 31.1875 376.125 C30.63320313 377.24519531 30.07890625 378.36539062 29.5078125 379.51953125 C28.77614809 380.99224038 28.04437139 382.46489372 27.3125 383.9375 C26.94769531 384.67548828 26.58289063 385.41347656 26.20703125 386.17382812 C25.67529297 387.24213867 25.67529297 387.24213867 25.1328125 388.33203125 C24.64578857 389.31393433 24.64578857 389.31393433 24.14892578 390.31567383 C23.1875 392.125 23.1875 392.125 21.1875 395.125 C11.38420712 393.55576787 2.63830998 387.25054075 -5.76098633 382.22094727 C-11.81307499 378.63366591 -17.99936309 375.35170105 -24.25 372.125 C-33.31673926 367.44343756 -42.26281961 362.59645415 -51.16162109 357.60498047 C-56.05682395 354.87199836 -60.97027142 352.17196926 -65.88101196 349.46704102 C-76.18319533 343.79203394 -86.47273379 338.09500995 -96.75 332.375 C-105.58892608 327.45720648 -114.44789869 322.57920065 -123.3347168 317.74853516 C-128.46971363 314.95504496 -133.59549884 312.14555062 -138.7109375 309.31640625 C-139.30863953 308.98585236 -139.90634155 308.65529846 -140.52215576 308.31472778 C-141.74924329 307.63599563 -142.97631425 306.95723354 -144.20336914 306.27844238 C-144.81688232 305.9390564 -145.43039551 305.59967041 -146.0625 305.25 C-146.67569092 304.91077515 -147.28888184 304.57155029 -147.9206543 304.2220459 C-156.64374156 299.39873894 -165.40022373 294.64320037 -174.1875 289.9375 C-182.66818959 285.38841897 -191.11039792 280.77769095 -199.5 276.0625 C-200.43827637 275.53825439 -201.37655273 275.01400879 -202.34326172 274.47387695 C-207.39785694 271.61546405 -212.15630083 268.59644808 -216.8125 265.125 C-210.74817879 251.69574089 -203.88145365 238.89627714 -196.53613281 226.12841797 C-193.66301286 221.12202681 -190.82643296 216.095369 -188 211.0625 C-187.13846313 209.52843506 -187.13846313 209.52843506 -186.25952148 207.96337891 C-181.62074796 199.66026203 -177.14071246 191.27837612 -172.6875 182.875 C-166.29750161 170.81804045 -159.66291787 158.92684926 -152.8125 147.125 C-145.69675799 134.83417289 -138.79913949 122.45264552 -132.09863281 109.93017578 C-126.68295748 99.8305523 -121.07214954 89.85084142 -115.38720703 79.90087891 C-113.80064551 77.10410301 -112.23951481 74.29438929 -110.68359375 71.48046875 C-105.05046478 61.34655643 -99.25070232 52.03218899 -91.8125 43.125 C-90.91776255 42.00641311 -90.02457365 40.8865861 -89.1328125 39.765625 C-72.06508458 18.58815587 -45.92328785 4.1027156 -18.84375 0.56640625 C-12.57422793 -0.09385218 -6.29729762 -0.0203906 0 0 Z " fill="#3AB4BE" transform="translate(320.8125,421.875)"/>
<path d="M0 0 C3.92436837 -0.05076972 7.84878581 -0.08779427 11.77332973 -0.12196445 C13.48728584 -0.14078018 15.20118245 -0.16661781 16.91491222 -0.2002306 C19.17838198 -0.24445067 21.44082461 -0.26492752 23.70464802 -0.27933025 C24.92156834 -0.29749294 26.13848866 -0.31565563 27.39228535 -0.33436871 C31.21558835 0.22556799 32.80985555 1.44589007 35.54034138 4.12667561 C37.35674763 6.87667561 37.35674763 6.87667561 39.10284138 10.12667561 C39.79855729 11.39091003 40.49661496 12.65385764 41.19659138 13.91573811 C41.75926716 14.93522541 41.75926716 14.93522541 42.33331013 15.97530842 C44.5141437 19.8623443 46.80770095 23.68135782 49.10284138 27.50167561 C49.60791218 28.34262775 50.11298298 29.1835799 50.63335896 30.05001545 C55.23679919 37.6805212 59.95748774 45.2359746 64.69317341 52.78487873 C71.36516741 63.42359354 77.93988702 74.12128599 84.5110445 84.82247639 C87.9138526 90.36309295 91.3205778 95.90129818 94.72784138 101.43917561 C95.72932209 103.06701984 95.72932209 103.06701984 96.75103474 104.72774982 C101.35616614 112.21016959 105.97568547 119.6835434 110.60528278 127.15084553 C114.26196634 133.05204216 117.89988433 138.96456073 121.53252888 144.88058186 C127.2868136 154.25029453 133.07446201 163.59436556 138.96905231 172.87643147 C143.15692379 179.48572294 147.25946842 186.14603383 151.35284138 192.81417561 C156.80095552 201.68801776 162.27393366 210.54512228 167.79034138 219.37667561 C168.72003742 220.86687214 168.72003742 220.86687214 169.66851521 222.38717365 C170.25012409 223.31699055 170.83173298 224.24680744 171.43096638 225.20480061 C171.96786091 226.06524982 172.50475544 226.92569904 173.0579195 227.81222248 C174.3265306 229.79286036 175.65381838 231.70116707 177.02471638 233.61105061 C177.52487263 234.44120686 178.02502888 235.27136311 178.54034138 236.12667561 C178.21034138 237.11667561 177.88034138 238.10667561 177.54034138 239.12667561 C164.30901538 232.93130178 152.07708591 224.85022049 139.68536091 217.15841389 C133.34932687 213.23129103 126.98947525 209.34597094 120.60284138 205.50167561 C119.78082233 205.00498371 118.95880329 204.50829182 118.11187458 203.99654865 C113.99282498 201.5258039 109.87395153 199.1995742 105.54034138 197.12667561 C112.20073753 208.56570249 118.86273326 219.96814049 126.28765583 230.93307209 C129.54034138 235.81240503 129.54034138 235.81240503 129.54034138 239.12667561 C124.51660539 237.67468391 120.4160395 235.49235325 115.97784138 232.81417561 C115.24605671 232.37831135 114.51427204 231.94244709 113.76031208 231.49337482 C106.99177312 227.44260892 100.2935298 223.27775301 93.59356403 219.11495686 C87.2013342 215.14582536 80.79128316 211.20794718 74.35284138 207.31417561 C73.49714558 206.79226643 72.64144978 206.27035725 71.7598238 205.73263264 C70.97196491 205.2580965 70.18410603 204.78356037 69.37237263 204.29464436 C68.6786153 203.87465168 67.98485798 203.454659 67.27007771 203.02193928 C65.56892333 201.97345734 65.56892333 201.97345734 63.54034138 202.12667561 C63.16449909 202.77813557 62.78865681 203.42959553 62.40142536 204.1007967 C61.25771731 206.08322399 60.11399882 208.06564527 58.97027302 210.04806232 C57.62172808 212.38558428 56.27324769 214.72314334 54.92486286 217.06075764 C51.54067037 222.92751847 48.155483 228.79369676 44.76690388 234.65792561 C38.64939723 245.24792246 32.55113547 255.84827323 26.49273396 266.47216511 C17.80833347 281.69937454 8.98652434 296.84366412 0.11658955 311.96342182 C-0.67603302 313.3145376 -1.46860543 314.6656828 -2.26112652 316.0168581 C-4.18617608 319.29880568 -6.11196951 322.58031094 -8.03949261 325.86080647 C-8.73815622 327.05098348 -9.43680601 328.24116862 -10.13543987 329.43136311 C-10.75330364 330.48307697 -11.37116741 331.53479084 -12.00775433 332.61837482 C-12.86472785 334.09887692 -13.69463705 335.59663245 -14.45965862 337.12667561 C-13.63945956 337.13090755 -12.8192605 337.13513948 -11.97420692 337.13949966 C14.71816208 337.27741838 41.41050942 337.41926475 68.10284138 337.56417561 C69.11942215 337.56968984 70.13600293 337.57520408 71.18338919 337.58088541 C124.53229183 337.87049881 177.88048157 338.18455828 231.22784138 338.68917561 C232.40193184 338.7002774 233.5760223 338.7113792 234.78569126 338.72281742 C248.3706345 338.85175915 261.95550174 338.98730376 275.54034138 339.12667561 C276.52548504 368.98449165 276.69059663 398.82152289 276.67466688 428.69372797 C276.67208958 435.0605479 276.67449437 441.42736658 276.67605305 447.79418659 C276.67796868 459.10730583 276.67492454 470.42041628 276.66979371 481.73353375 C276.66528743 491.98893381 276.66614015 502.2443226 276.67071247 512.49972248 C276.67605619 524.49052257 276.67806327 536.48131585 276.67510021 548.47211754 C276.67354163 554.79232531 276.6733333 561.11252531 276.6766367 567.43273258 C276.67951027 573.3379218 276.67754939 579.24308946 276.67174244 585.14827633 C276.67041435 587.31839112 276.67080978 589.4885077 276.6730051 591.65862179 C276.67571333 594.60550742 276.6723402 597.55232261 276.66732502 600.49920368 C276.66955574 601.36849723 276.67178646 602.23779077 276.67408478 603.13342655 C276.65449481 609.01252218 276.65449481 609.01252218 275.54034138 610.12667561 C274.0208945 610.22532862 272.49686017 610.25406845 270.97421455 610.25531006 C269.98112276 610.2585345 268.98803096 610.26175895 267.96484548 610.26508111 C266.86060584 610.26353251 265.75636619 610.2619839 264.61866474 610.26038837 C263.45570871 610.26265393 262.29275268 610.26491949 261.09455556 610.2672537 C257.85158127 610.27251228 254.60864159 610.27323458 251.36566436 610.27205932 C247.87321659 610.27185604 244.38077722 610.27736746 240.88833332 610.28211689 C234.037046 610.29044287 227.18576727 610.2931727 220.33447532 610.29372927 C214.76110479 610.29420398 209.18773711 610.29625649 203.61436749 610.29942989 C187.80932281 610.3082456 172.00428495 610.31284841 156.1992378 610.31209942 C155.3462136 610.31205946 154.4931894 610.31201951 153.61431599 610.31197834 C152.76024739 610.31193746 151.9061788 610.31189658 151.02622934 610.31185446 C137.21353878 610.31144883 123.40087558 610.32099504 109.58819292 610.33511671 C95.40191603 610.34950549 81.21565246 610.35638536 67.0293681 610.35552293 C59.06664259 610.35519158 51.10394569 610.35791057 43.14122677 610.36870098 C36.35384429 610.37783943 29.56650337 610.3799543 22.77911738 610.37319156 C19.32021684 610.36994174 15.86139584 610.36981321 12.40250301 610.37854481 C-4.19904947 610.41277986 -19.7957011 610.17224052 -35.83465862 605.43917561 C-36.72604534 605.17862385 -37.61743206 604.91807209 -38.5358305 604.64962482 C-55.51031387 599.52508054 -70.87345494 591.63688891 -84.45965862 580.12667561 C-85.39422894 579.34937092 -86.32879925 578.57206623 -87.29168987 577.77120686 C-104.37025673 563.1518207 -114.39043489 543.23153066 -123.08465862 522.81417561 C-129.19241315 508.50529645 -136.97219908 494.92179437 -144.32971478 481.22976398 C-146.06921883 477.99214224 -147.80535126 474.75271449 -149.54168987 471.51339436 C-151.42155379 468.00649847 -153.302016 464.4999305 -155.18524456 460.99483967 C-159.61024129 452.74901467 -163.94446826 444.45894981 -168.24969769 436.15011311 C-171.64481465 429.62228143 -175.18560102 423.19047511 -178.8014555 416.78292561 C-182.42386933 410.31056745 -185.73709998 403.69707179 -188.97381878 397.02438068 C-191.17602213 392.52323995 -193.52297777 388.28427488 -196.33539104 384.13302326 C-199.00001709 379.37777965 -199.70936823 374.94311409 -199.70575428 369.54749203 C-199.70973638 368.23275579 -199.71371847 366.91801955 -199.71782124 365.56344283 C-199.71211578 364.1111819 -199.7062246 362.65892169 -199.70016766 361.20666218 C-199.70103999 359.65880779 -199.7027915 358.1109537 -199.70534599 356.56310117 C-199.70981797 352.31243081 -199.70181787 348.06186124 -199.69178987 343.81120372 C-199.68315554 339.22639931 -199.68607552 334.64160061 -199.68759441 330.05679035 C-199.68864327 322.11418657 -199.68236654 314.17161564 -199.67111874 306.22902012 C-199.65486688 294.74535462 -199.64965605 283.261705 -199.64714275 271.77802925 C-199.64276516 253.1466771 -199.6294543 234.51534246 -199.61053753 215.88399982 C-199.5921804 197.78504238 -199.57802308 179.6860897 -199.5695219 161.58712482 C-199.56899646 160.47156482 -199.56847101 159.35600481 -199.56792964 158.20663996 C-199.56531957 152.61022115 -199.56279215 147.0138023 -199.56030583 141.41738343 C-199.53957133 94.98713536 -199.50434403 48.55690639 -199.45965862 2.12667561 C-194.08476591 1.98642403 -188.70983301 1.84785861 -183.33486027 1.7107082 C-181.51483934 1.66404766 -179.6948292 1.61696404 -177.87483138 1.5694111 C-161.54652203 1.14327607 -145.22293137 0.92385254 -128.88943958 0.83574963 C-124.20806461 0.80964031 -119.52672831 0.77858698 -114.84538555 0.74729633 C-108.24180734 0.70372264 -101.63821731 0.6628582 -95.03460979 0.62399006 C-88.36141597 0.58470093 -81.68824209 0.54312817 -75.01507854 0.49899006 C-74.19203909 0.49355635 -73.36899963 0.48812264 -72.52101958 0.48252428 C-70.86390159 0.47157708 -69.20678363 0.46062585 -67.54966569 0.44967055 C-66.7329907 0.44427363 -65.91631571 0.4388767 -65.074893 0.43331623 C-64.26136073 0.42793882 -63.44782846 0.4225614 -62.6096437 0.41702104 C-53.81591192 0.35918701 -45.02218912 0.30518902 -36.2283659 0.26324177 C-35.46740805 0.25959043 -34.7064502 0.2559391 -33.92243302 0.25217712 C-30.92767301 0.23785927 -27.93291302 0.22355967 -24.93815064 0.20974517 C-16.62494051 0.17084458 -8.31263754 0.11036933 0 0 Z " fill="#37B3AD" transform="translate(199.4596586227417,795.8733243942261)"/>
<path d="M0 0 C0.66 0 1.32 0 2 0 C2.16181066 18.92686873 1.83798879 37.82502363 1.35571289 56.74487305 C1.06201018 68.49973406 0.93893905 80.24152689 1 92 C0.34 92 -0.32 92 -1 92 C-1.04125 92.9075 -1.0825 93.815 -1.125 94.75 C-2.56182158 104.36712575 -9.21587383 113.15460136 -14.11938477 121.37963867 C-17.417099 126.93545706 -20.48977764 132.58008355 -23.48168945 138.30517578 C-26.42207633 143.92800977 -29.44684543 149.50017595 -32.5 155.0625 C-37.19247464 163.61986044 -41.77924384 172.22950923 -46.33853149 180.85818481 C-51.70848217 191.01845777 -57.12597882 201.1369245 -62.8125 211.125 C-63.32562744 212.02911621 -63.83875488 212.93323242 -64.36743164 213.86474609 C-66.4812175 217.58530507 -68.59870258 221.30346153 -70.73486328 225.01123047 C-72.46367585 228.01983198 -74.17089984 231.03984953 -75.875 234.0625 C-76.67127808 235.42882568 -76.67127808 235.42882568 -77.48364258 236.82275391 C-77.9608374 237.67659668 -78.43803223 238.53043945 -78.9296875 239.41015625 C-79.35491699 240.15402588 -79.78014648 240.89789551 -80.21826172 241.66430664 C-81.54618246 245.63189493 -80.54416491 248.78727953 -78.87109375 252.51586914 C-78.16146484 253.76291626 -78.16146484 253.76291626 -77.4375 255.03515625 C-76.89673828 255.99429932 -76.35597656 256.95344238 -75.79882812 257.94165039 C-75.20521484 258.97153076 -74.61160156 260.00141113 -74 261.0625 C-73.38060547 262.15232178 -72.76121094 263.24214355 -72.12304688 264.36499023 C-64.54353255 277.65077993 -56.76616013 290.82282042 -49 304 C-41.0245896 317.53660886 -33.21925681 331.14583962 -25.62255859 344.89892578 C-21.33193517 352.6488993 -16.95961604 360.34600958 -12.5 368 C-11.94892578 368.94810547 -11.39785156 369.89621094 -10.83007812 370.87304688 C-7.57681303 376.42922932 -4.18388957 381.85228044 -0.59570312 387.19921875 C4.35388827 395.88675126 4.29772216 402.96477501 3.890625 412.796875 C3.84255898 414.23638594 3.79585128 415.67594282 3.75042725 417.11553955 C3.6272428 420.89263033 3.48411503 424.66871636 3.3371582 428.44494629 C3.22161721 431.50063328 3.12034352 434.55671236 3.01987076 437.61292648 C2.89836358 441.29941521 2.7703821 444.98566839 2.640625 448.671875 C2.61659859 449.35859032 2.59257217 450.04530563 2.56781769 450.75283051 C2.2657992 459.19339222 1.791018 467.59060525 1 476 C-4.37787798 471.39183713 -7.37866328 465.55626871 -10.8125 459.4375 C-11.8101664 457.68366728 -12.80783943 455.92983831 -13.80586243 454.1762085 C-14.84700018 452.34381098 -15.88438869 450.50933523 -16.92089844 448.67431641 C-19.58035279 443.96892478 -22.26821644 439.27995085 -24.95410156 434.58959961 C-26.95907763 431.0873082 -28.9607714 427.58316444 -30.9609375 424.078125 C-31.29391846 423.49465805 -31.62689941 422.9111911 -31.9699707 422.31004333 C-33.31686146 419.94982902 -34.66361541 417.58953665 -36.01037598 415.22924805 C-45.34615269 398.86822884 -54.71655789 382.52788272 -64.14111328 366.21777344 C-67.88978034 359.72874904 -71.63308667 353.2366305 -75.37744141 346.74511719 C-78.48818339 341.35251686 -81.60013327 335.96062178 -84.71484375 330.5703125 C-91.1701927 319.39550676 -97.60293379 308.20825292 -104 297 C-109.38061416 287.57455534 -114.77230232 278.15562525 -120.1875 268.75 C-121.10499023 267.15285156 -121.10499023 267.15285156 -122.04101562 265.5234375 C-122.61916016 264.52054688 -123.19730469 263.51765625 -123.79296875 262.484375 C-124.3348584 261.53884766 -124.87674805 260.59332031 -125.43505859 259.61914062 C-126.86110355 257.23246196 -128.39990078 254.98269959 -129.98828125 252.703125 C-131.75351999 249.87605852 -131.99943439 249.02652432 -132.07421875 245.51953125 C-130.76969666 241.24544252 -128.97502582 237.58483622 -126.8125 233.6875 C-126.37397705 232.87700195 -125.9354541 232.06650391 -125.48364258 231.23144531 C-124.51702192 229.44614422 -123.54602745 227.66320618 -122.57128906 225.88232422 C-120.92317834 222.85908071 -119.29913337 219.82384434 -117.6796875 216.78515625 C-112.08323641 206.30080574 -106.39983541 195.87932931 -100.5 185.5625 C-95.14332916 176.19056715 -90.15552455 166.65717422 -85.23266602 157.05151367 C-80.96640322 148.76458373 -76.46123176 140.64639676 -71.82421875 132.5625 C-67.86844718 125.63029836 -64.14602004 118.59945318 -60.5 111.5 C-56.31616278 103.35385244 -51.98667781 95.32299662 -47.4375 87.375 C-42.56760494 78.86526123 -37.94442788 70.25810594 -33.44458008 61.54760742 C-29.61670008 54.14754203 -25.66755626 46.82173254 -21.66015625 39.51757812 C-18.83214612 34.36127169 -16.02177976 29.19610325 -13.23828125 24.015625 C-12.92131287 23.42578323 -12.60434448 22.83594147 -12.277771 22.22822571 C-10.72716022 19.34150877 -9.17843479 16.45379254 -7.63134766 13.56518555 C-6.79095947 11.99957886 -6.79095947 11.99957886 -5.93359375 10.40234375 C-5.43915771 9.47929443 -4.94472168 8.55624512 -4.43530273 7.60522461 C-3.96165283 6.74550049 -3.48800293 5.88577637 -3 5 C-2.22861694 3.59536499 -2.22861694 3.59536499 -1.44165039 2.16235352 C-0.72803345 1.09198853 -0.72803345 1.09198853 0 0 Z " fill="#2EAE69" transform="translate(626,1023)"/>
<path d="M0 0 C2.9939012 2.90436701 5.03471154 5.50587681 6.99609375 9.19921875 C7.54797363 10.23079102 8.09985352 11.26236328 8.66845703 12.32519531 C9.5441333 13.98953613 9.5441333 13.98953613 10.4375 15.6875 C11.05222168 16.84217773 11.66694336 17.99685547 12.30029297 19.18652344 C17.01375496 28.05050357 21.63367574 36.96358523 26.24389648 45.8815918 C30.21373201 53.54334422 34.31691576 61.12360087 38.4765625 68.68359375 C42.29792348 75.65254943 45.978779 82.68804783 49.625 89.75 C53.27158745 96.81212097 56.96539576 103.82987845 60.875 110.75 C65.57693388 119.0737331 69.9244245 127.57334103 74.28204346 136.08023071 C78.58926562 144.47672672 83.04594522 152.75413984 87.75 160.9375 C92.43538124 169.09085701 96.7598706 177.35632819 100.9050293 185.79589844 C104.13642392 192.34901892 107.54181996 198.78544786 111.0625 205.1875 C111.81539307 206.55938477 111.81539307 206.55938477 112.58349609 207.95898438 C113.57717177 209.76872064 114.57114479 211.57829368 115.56542969 213.38769531 C121.40634721 224.02381129 126.95016147 234.60474546 131.625 245.8125 C137.38427278 259.57395957 144.51423722 271.48051343 154 283 C154.73089844 283.8971875 155.46179688 284.794375 156.21484375 285.71875 C172.29735091 304.56407484 196.27393837 315.42593541 220.13305664 320.31518555 C220.98375732 320.49476807 221.83445801 320.67435059 222.7109375 320.859375 C223.46681152 321.00858398 224.22268555 321.15779297 225.00146484 321.31152344 C227.3286115 322.11320357 228.33158574 323.23224142 230 325 C224.2749148 325.05001082 218.54996106 325.08600408 212.82470703 325.10986328 C210.8832782 325.11982592 208.941864 325.13340092 207.00048828 325.15087891 C192.03329914 325.28210233 178.08692768 324.5801865 163.625 320.3125 C162.73361328 320.05194824 161.84222656 319.79139648 160.92382812 319.52294922 C143.94934475 314.39840494 128.58620368 306.51021331 115 295 C114.06542969 294.22269531 113.13085938 293.44539063 112.16796875 292.64453125 C95.0894019 278.02514509 85.06922373 258.10485505 76.375 237.6875 C70.26724548 223.37862084 62.48745954 209.79511876 55.12994385 196.10308838 C53.39043979 192.86546664 51.65430736 189.62603888 49.91796875 186.38671875 C48.03810483 182.87982287 46.15764262 179.3732549 44.27441406 175.86816406 C39.84941733 167.62233907 35.51519036 159.3322742 31.20996094 151.0234375 C27.81484397 144.49560582 24.2740576 138.0637995 20.65820312 131.65625 C17.03578929 125.18389185 13.72255864 118.57039619 10.48583984 111.89770508 C8.28363649 107.39656434 5.93668085 103.15759927 3.12426758 99.00634766 C-0.01984478 93.3954214 -0.28127562 88.21952947 -0.22705078 81.96533203 C-0.22734283 81.07688095 -0.22763489 80.18842987 -0.22793579 79.27305603 C-0.22654808 76.35120709 -0.21101317 73.42961662 -0.1953125 70.5078125 C-0.19158039 68.47614684 -0.18873435 66.44447938 -0.18673706 64.41281128 C-0.17911624 59.07644647 -0.15948104 53.74019126 -0.1373291 48.40386963 C-0.11683727 42.95415733 -0.10772821 37.50442725 -0.09765625 32.0546875 C-0.07623371 21.36974363 -0.04211647 10.68488094 0 0 Z " fill="#3FB6E1" transform="translate(0,1081)"/>
<path d="M0 0 C5.10212873 1.49311122 9.4632345 3.71440885 14.0625 6.3125 C15.10374023 6.88000977 15.10374023 6.88000977 16.16601562 7.45898438 C20.42641063 9.85014624 23.62614461 12.40964053 27 16 C27.99 16.66 28.98 17.32 30 18 C31.18017578 20.05102539 31.18017578 20.05102539 32.3203125 22.53515625 C34.82745524 27.75665135 37.7374872 32.57526079 40.875 37.4375 C41.39803711 38.25863281 41.92107422 39.07976563 42.45996094 39.92578125 C44.73055176 43.48683155 47.01794299 47.03603286 49.3359375 50.56640625 C49.96757812 51.53449219 50.59921875 52.50257812 51.25 53.5 C51.79140625 54.3146875 52.3328125 55.129375 52.890625 55.96875 C54 58 54 58 54 61 C48.97626401 59.5480083 44.87569812 57.36567764 40.4375 54.6875 C39.70571533 54.25163574 38.97393066 53.81577148 38.2199707 53.36669922 C31.45058005 49.31542361 24.74219973 45.16327739 18.05541992 40.97729492 C13.49776875 38.13080753 8.91549777 35.35316597 4.25390625 32.6796875 C3.3306958 32.14520996 2.40748535 31.61073242 1.45629883 31.06005859 C-0.31075261 30.04143354 -2.08543215 29.035897 -3.8684082 28.04541016 C-4.65948975 27.5869873 -5.45057129 27.12856445 -6.265625 26.65625 C-6.96461914 26.26244141 -7.66361328 25.86863281 -8.38378906 25.46289062 C-10.6200953 23.43872945 -10.82222237 21.97347874 -11 19 C-10.3190918 17.01123047 -10.3190918 17.01123047 -9.19921875 15.1171875 C-8.79896484 14.42496094 -8.39871094 13.73273437 -7.98632812 13.01953125 C-7.55771484 12.31183594 -7.12910156 11.60414063 -6.6875 10.875 C-6.27048828 10.15957031 -5.85347656 9.44414063 -5.42382812 8.70703125 C-3.68851394 5.74564979 -1.90464418 2.85696626 0 0 Z " fill="#3CB4C4" transform="translate(275,974)"/>
<path d="M0 0 C0.99 0.33 1.98 0.66 3 1 C-1.34440833 9.91288356 -5.83239486 18.7518173 -10.5 27.5 C-10.92579346 28.32338867 -11.35158691 29.14677734 -11.7902832 29.99511719 C-16.34890837 38.42759183 -22.30063947 44.62987038 -30.8125 49.0625 C-31.91207031 49.65160156 -33.01164063 50.24070312 -34.14453125 50.84765625 C-37 52 -37 52 -40 51 C-41.4451135 48.93721702 -42.73742659 46.91915808 -44 44.75 C-44.51433594 43.88955078 -44.51433594 43.88955078 -45.0390625 43.01171875 C-46.03345241 41.34554635 -47.01689868 39.67285789 -48 38 C-48.598125 37.11828125 -49.19625 36.2365625 -49.8125 35.328125 C-51 33 -51 33 -50.93237305 31.08007812 C-49.50984141 27.90648044 -47.27728265 27.05927669 -44.26953125 25.390625 C-43.68266037 25.06012146 -43.09578949 24.72961792 -42.49113464 24.38909912 C-40.60484971 23.33038673 -38.70918082 22.28995176 -36.8125 21.25 C-35.5859139 20.56631312 -34.35999496 19.88142785 -33.13476562 19.1953125 C-30.67467872 17.81952359 -28.21147893 16.44956945 -25.74584961 15.08374023 C-21.93953846 12.9712023 -18.1495987 10.83078455 -14.3671875 8.67578125 C-13.25585449 8.04325439 -12.14452148 7.41072754 -10.99951172 6.7590332 C-8.3800026 5.22284867 -5.84510979 3.61106739 -3.3125 1.9375 C-1.6728125 0.9784375 -1.6728125 0.9784375 0 0 Z " fill="#2DAE61" transform="translate(880,535)"/>
<path d="M0 0 C1.65 0.99 3.3 1.98 5 3 C4.42647107 6.87132028 2.51295648 9.08172796 0 12 C0 8.04 0 4.08 0 0 Z " fill="#F4FBFA" transform="translate(0,848)"/>
</svg>
