<?xml version="1.0" encoding="UTF-8"?>
<svg version="1.1" xmlns="http://www.w3.org/2000/svg" width="1080" height="1080">
<path d="M0 0 C2.60204631 2.46762325 4.63523587 4.74660658 6.359375 7.890625 C6.75253906 8.59960938 7.14570312 9.30859375 7.55078125 10.0390625 C7.94652344 10.76867187 8.34226562 11.49828125 8.75 12.25 C9.16121094 12.99507813 9.57242187 13.74015625 9.99609375 14.5078125 C11.00349544 16.33519231 12.00258786 18.16714863 13 20 C20.71775337 16.30099029 28.07969743 12.11487488 35.4375 7.75 C37.55967834 6.49222423 39.68330867 5.23689411 41.80859375 3.984375 C42.73470459 3.43491211 43.66081543 2.88544922 44.61499023 2.31933594 C47 1 47 1 50 0 C54.18831821 6.96638063 58.35634199 13.94446196 62.5 20.9375 C63.04269531 21.84951172 63.58539062 22.76152344 64.14453125 23.70117188 C67.384697 29.1723348 70.50042412 34.69428282 73.52587891 40.28686523 C75.94574793 44.74065862 78.44106663 49.15129596 80.9375 53.5625 C81.49179687 54.54283203 82.04609375 55.52316406 82.6171875 56.53320312 C87.49811931 65.14821082 92.44764717 73.72291845 97.40527344 82.29394531 C101.53776259 89.44542963 105.63051312 96.61793074 109.6875 103.8125 C118.0038498 118.55918602 126.38585394 133.26328987 134.9375 147.875 C142.64405263 161.04629568 150.14588515 174.32999668 157.6015625 187.64453125 C157.99649902 188.34900391 158.39143555 189.05347656 158.79833984 189.77929688 C159.54491946 191.11181189 160.29008886 192.44511823 161.03369141 193.77929688 C162.98285253 197.26026719 165.0343451 200.64263218 167.1875 204 C182.40072171 229.10181583 184.47768453 262.92416623 178 291 C172.60964525 312.24248969 161.05432821 331.38378008 147.50390625 348.4375 C143.98114067 352.91996868 141.00068651 357.62071478 138.0625 362.5 C133.13982887 370.56529511 128.11364449 378.55442825 123 386.5 C117.44112289 395.14684728 111.97570806 403.84365577 106.58862305 412.59838867 C102.7917167 418.7559983 98.89781324 424.84328925 94.94970703 430.90478516 C91.52021608 436.17583153 88.16846815 441.49125342 84.84570312 446.83007812 C81.52170907 452.17052355 78.17269437 457.49475881 74.8125 462.8125 C74.29840576 463.62614014 73.78431152 464.43978027 73.25463867 465.27807617 C70.6360939 469.419691 68.01089489 473.55689766 65.375 477.6875 C62.23236962 482.61726477 59.13672882 487.57569317 56.04248047 492.53588867 C52.71320403 497.8688386 49.36054068 503.18670546 46 508.5 C42.31714758 514.32333864 38.64657248 520.15387262 35 526 C29.8734662 534.21707778 24.70015761 542.40431931 19.5234375 550.58984375 C18.03510529 552.94446164 16.5484756 555.3001443 15.0625 557.65625 C-11.30091463 599.45137195 -11.30091463 599.45137195 -19 611 C-19.66 611 -20.32 611 -21 611 C-21.2475 611.58136719 -21.495 612.16273438 -21.75 612.76171875 C-29.25725577 626.20439862 -49.74135117 635.56871676 -63.8605957 639.68041992 C-77.69201411 643.45132084 -92.19497729 642.63750526 -106.40813231 642.50696969 C-110.44923435 642.47530215 -114.49036345 642.47274414 -118.53157043 642.46684265 C-126.15262953 642.45142103 -133.77332172 642.41055438 -141.39422065 642.3600952 C-150.08368197 642.30383355 -158.7731626 642.27662354 -167.46276128 642.25161803 C-185.30871403 642.19962523 -203.15432732 642.1119154 -221 642 C-221.01127898 642.75072281 -221.02255796 643.50144562 -221.03417873 644.2749176 C-221.14238193 651.46396555 -221.25164594 658.65299633 -221.36200708 665.84201145 C-221.4186653 669.53504703 -221.47495899 673.2280873 -221.53031921 676.92114258 C-221.86595055 699.28540502 -222.31349698 721.64339998 -223 744 C-225.54653344 741.67502723 -227.17478561 739.24403174 -228.8984375 736.265625 C-229.45370117 735.31051025 -230.00896484 734.35539551 -230.58105469 733.37133789 C-231.17305664 732.34129639 -231.76505859 731.31125488 -232.375 730.25 C-232.9927832 729.18322021 -233.61056641 728.11644043 -234.24707031 727.01733398 C-239.0115294 718.77054801 -243.70077716 710.48175884 -248.37109375 702.18139648 C-252.36114084 695.09894035 -256.43947473 688.07387002 -260.5859375 681.08203125 C-263.74785883 675.73541671 -266.87015235 670.36545312 -270 665 C-270.66 691.07 -271.32 717.14 -272 744 C-274.61370237 741.38629763 -276.08112752 739.40586945 -277.8984375 736.265625 C-278.45370117 735.31051025 -279.00896484 734.35539551 -279.58105469 733.37133789 C-280.17305664 732.34129639 -280.76505859 731.31125488 -281.375 730.25 C-281.9927832 729.18322021 -282.61056641 728.11644043 -283.24707031 727.01733398 C-288.01611658 718.76260808 -292.71036625 710.46609152 -297.38427734 702.15722656 C-300.91423824 695.8901187 -304.52202474 689.67612907 -308.19238281 683.49047852 C-311.71084343 677.5398077 -315.11007071 671.52463009 -318.5 665.5 C-322.21324485 658.90219198 -325.95004308 652.32417484 -329.8125 645.8125 C-337.3826197 633.04685752 -344.66990524 620.11445765 -352.01467896 607.21841431 C-356.52306023 599.30389185 -361.07915727 591.41934661 -365.6875 583.5625 C-370.90428832 574.64673893 -376.02482636 565.68194837 -381.08666992 556.67749023 C-385.72022653 548.45269759 -390.46461596 540.29501022 -395.24414062 532.15429688 C-396.32748327 530.30714037 -397.40524299 528.45669465 -398.4765625 526.60253906 C-399.48514861 524.8795378 -400.52150232 523.17246831 -401.5859375 521.48339844 C-402.06289063 520.70254883 -402.53984375 519.92169922 -403.03125 519.1171875 C-403.45986328 518.44026855 -403.88847656 517.76334961 -404.33007812 517.06591797 C-405.29085567 514.10305368 -404.37145147 512.73580106 -403 510 C-402.43659912 508.84673218 -402.43659912 508.84673218 -401.86181641 507.67016602 C-401.44593262 506.87280029 -401.03004883 506.07543457 -400.6015625 505.25390625 C-400.12855713 504.34584229 -399.65555176 503.43777832 -399.16821289 502.50219727 C-398.65895264 501.53209717 -398.14969238 500.56199707 -397.625 499.5625 C-397.09189209 498.54406006 -396.55878418 497.52562012 -396.00952148 496.47631836 C-390.95950548 486.86222148 -385.7612849 477.3320384 -380.53857422 467.81103516 C-377.88627727 462.9651851 -375.25525541 458.10783975 -372.625 453.25 C-372.0882666 452.25895264 -371.5515332 451.26790527 -370.99853516 450.24682617 C-366.9660724 442.79605731 -362.95045234 435.33629033 -358.9375 427.875 C-354.16890649 419.00874451 -349.3685309 410.16072502 -344.53881836 401.32763672 C-340.66380093 394.23379796 -336.82741027 387.11962074 -333 380 C-316.90712518 350.0769311 -316.90712518 350.0769311 -309.25 336.625 C-306.3311647 331.49288213 -303.60430388 326.29843346 -301 321 C-298.13731582 315.17647445 -295.09126405 309.5050174 -291.86303711 303.87670898 C-289.21338349 299.22816431 -286.66925753 294.52851424 -284.1640625 289.80078125 C-283.82740067 289.16657257 -283.49073883 288.53236389 -283.14387512 287.87893677 C-281.77415229 285.29733635 -280.40508833 282.71548273 -279.04733276 280.12756348 C-278.08976973 278.3024981 -277.1255097 276.48110971 -276.16015625 274.66015625 C-275.59949463 273.59418213 -275.03883301 272.52820801 -274.46118164 271.42993164 C-273 269 -273 269 -271 268 C-271.59352401 298.66858812 -272.23961154 329.33507368 -273 360 C-267.31661377 349.79429966 -261.70769505 339.58684852 -256.546875 329.10546875 C-253.30460668 322.59636948 -249.79580036 316.26395045 -246 310.0625 C-243.95479219 306.69052917 -242.10807685 303.29216585 -240.375 299.75 C-237.33536787 293.56536182 -234.09182458 287.49812318 -230.8125 281.4375 C-230.28897949 280.46071289 -229.76545898 279.48392578 -229.22607422 278.47753906 C-228.72479004 277.55553711 -228.22350586 276.63353516 -227.70703125 275.68359375 C-227.2581958 274.85400146 -226.80936035 274.02440918 -226.34692383 273.16967773 C-225.07449495 271.11999938 -223.77968336 269.61448069 -222 268 C-222.69072618 308.01157775 -223.82351037 347.99935264 -225 388 C-180.12 388 -135.24 388 -89 388 C-97.09104648 373.55170272 -105.19100709 359.18263523 -113.5625 344.90625 C-116.95769368 339.09686668 -120.26758222 333.24168207 -123.5625 327.375 C-127.76145576 319.90088412 -132.04958546 312.48971716 -136.4375 305.125 C-141.77891874 296.15760149 -146.90583539 287.08262304 -151.98242188 277.96313477 C-155.61079205 271.45421485 -159.30807087 264.99657901 -163.10888672 258.5871582 C-172.39773088 242.91293568 -181.41449924 227.07817469 -190.35986328 211.20605469 C-197.09206734 199.27140952 -203.97207448 187.42482536 -210.9375 175.625 C-214.78105485 169.11278282 -218.56070508 162.56549671 -222.3125 156 C-223.05004517 154.70956787 -223.05004517 154.70956787 -223.80249023 153.39306641 C-224.74567752 151.73892023 -225.6861143 150.08320212 -226.62353516 148.42578125 C-227.5619005 146.77207461 -228.50991826 145.12381677 -229.46630859 143.48046875 C-229.92473145 142.68253906 -230.3831543 141.88460937 -230.85546875 141.0625 C-231.26821045 140.35222656 -231.68095215 139.64195312 -232.10620117 138.91015625 C-233 137 -233 137 -233 134 C-232.08863281 133.48953125 -231.17726563 132.9790625 -230.23828125 132.453125 C-225.8213601 129.97611887 -221.41005429 127.48920726 -217 125 C-216.20271484 124.55043945 -215.40542969 124.10087891 -214.58398438 123.63769531 C-202.87371253 117.02434035 -191.28526365 110.23144539 -179.78930664 103.25146484 C-174.21163295 99.87611679 -168.58798984 96.64405528 -162.84960938 93.55029297 C-157.45720687 90.61662642 -152.13939745 87.55047154 -146.8125 84.5 C-146.20872528 84.15473267 -145.60495056 83.80946533 -144.98287964 83.45373535 C-135.48820496 78.02358791 -126.0290165 72.53465634 -116.58911133 67.00976562 C-109.39446773 62.80224546 -102.16703315 58.65563251 -94.9230957 54.53369141 C-88.33641653 50.77961271 -81.79021195 46.95933773 -75.25 43.125 C-67.11600596 38.3586248 -58.92913223 33.70252961 -50.6875 29.125 C-40.44420876 23.43428264 -30.34532015 17.52815113 -20.2956543 11.50439453 C-13.61284567 7.50686641 -6.86803063 3.67069664 0 0 Z " fill="#27AC38" transform="translate(899,335)"/>
<path d="M0 0 C0.91982666 -0.00209473 1.83965332 -0.00418945 2.78735352 -0.00634766 C8.07492026 0.02788206 13.04447409 0.39976638 18.25 1.3125 C24.1692571 2.31059487 28.98444744 1.72207955 34.86328125 0.71484375 C39.61798837 0.07994221 44.27035113 -0.08723543 49.0625 -0.125 C50.25661499 -0.15086182 50.25661499 -0.15086182 51.47485352 -0.17724609 C56.33216324 -0.17437506 60.9164049 0.34374575 65.69085509 1.25315857 C76.53576004 3.28952205 87.15834483 3.71837773 98.16821289 3.84375 C100.09582519 3.87554458 102.02342012 3.90840689 103.95099735 3.94226074 C108.93088818 4.0258364 113.91083007 4.09221964 118.89105844 4.15197754 C121.70813969 4.18623106 124.52515374 4.22381342 127.34217453 4.26269531 C139.286451 4.42624177 151.23092857 4.54928368 163.17579913 4.65982056 C168.27892963 4.70777902 173.38202374 4.75935871 178.48512268 4.81054688 C189.23767752 4.91789693 199.99026295 5.02186007 210.74285889 5.125 C220.41036294 5.21775275 230.07785442 5.31178665 239.74534106 5.40633583 C241.87028725 5.4270938 243.995234 5.44779372 246.12018132 5.46843529 C257.61310726 5.58010869 269.10596245 5.69596765 280.59872437 5.82348633 C283.64454804 5.85706729 286.69037246 5.89057937 289.73619771 5.92401695 C291.73276292 5.94594847 293.729327 5.96798269 295.72588992 5.99012184 C307.64820458 6.12118199 319.56957934 6.21337497 331.49257183 6.24594116 C337.07197087 6.26171573 342.65119912 6.29638041 348.23046857 6.3369503 C351.82354968 6.36186007 355.41596165 6.37716173 359.00912285 6.36474609 C387.72790078 6.27473704 417.04491284 10.05585109 439.078125 30.265625 C440.8125 32.1875 440.8125 32.1875 440.8125 34.1875 C441.8025 34.5175 442.7925 34.8475 443.8125 35.1875 C448.83845374 41.21545871 452.75465466 48.22903861 456.6875 55 C457.2335791 55.93158936 457.7796582 56.86317871 458.34228516 57.82299805 C460.16971543 60.94216222 461.99120683 64.06474888 463.8125 67.1875 C466.24199616 71.34358954 468.67323442 75.49865561 471.105896 79.65289307 C471.82891289 80.88762362 472.55177176 82.12244673 473.2744751 83.35736084 C478.91889501 93.00003013 484.63329226 102.59846615 490.39624023 112.17089844 C496.59663987 122.47340957 502.71243603 132.82534176 508.8125 143.1875 C509.50988281 142.78402344 510.20726562 142.38054687 510.92578125 141.96484375 C517.04513618 138.44565429 523.18652336 134.9732521 529.3671875 131.5625 C529.94947617 131.24084366 530.53176483 130.91918732 531.13169861 130.58778381 C534.06964177 128.96500249 537.00936249 127.34573493 539.95239258 125.73217773 C546.38076273 122.18403019 552.59703698 118.4773228 558.67895508 114.35961914 C559.73505981 113.77942017 559.73505981 113.77942017 560.8125 113.1875 C561.4725 113.5175 562.1325 113.8475 562.8125 114.1875 C548.94312381 139.95126337 548.94312381 139.95126337 541.8125 152.1875 C544.7393957 151.2118681 546.96668433 150.01243194 549.6171875 148.44921875 C550.58237305 147.88251465 551.54755859 147.31581055 552.54199219 146.73193359 C553.58000977 146.11914551 554.61802734 145.50635742 555.6875 144.875 C564.45998846 139.72284094 573.262039 134.63141485 582.11401367 129.6171875 C586.61579471 127.05485437 591.07494943 124.43770458 595.49609375 121.73828125 C596.41874023 121.1757666 597.34138672 120.61325195 598.29199219 120.03369141 C600.06408771 118.94825893 601.83187065 117.85574615 603.59472656 116.75537109 C604.38202148 116.27277832 605.16931641 115.79018555 605.98046875 115.29296875 C606.67422607 114.86137451 607.3679834 114.42978027 608.08276367 113.98510742 C608.65357666 113.72189697 609.22438965 113.45868652 609.8125 113.1875 C610.4725 113.5175 611.1325 113.8475 611.8125 114.1875 C593.41354414 148.32583687 593.41354414 148.32583687 585.29589844 161.68774414 C580.85755534 169.1670389 576.87362471 176.92444102 572.76391602 184.58740234 C565.27522958 198.54486276 557.68979713 212.42296505 549.61328125 226.05078125 C545.16334814 233.80196626 540.98889495 241.70970153 536.76489258 249.58544922 C531.9409872 258.57663763 527.10246158 267.55402377 522.06616211 276.42822266 C519.18362639 281.50959451 516.36805323 286.62577475 513.5625 291.75 C506.61515179 304.42275148 499.5104458 317.00865895 492.31640625 329.54296875 C491.9505542 330.18057129 491.58470215 330.81817383 491.20776367 331.47509766 C490.27343613 333.10050117 489.33608899 334.72416797 488.3984375 336.34765625 C486.73756569 339.21787091 486.73756569 339.21787091 485.3515625 342.49609375 C483.8125 345.1875 483.8125 345.1875 482.21165466 345.82588196 C478.78075328 346.34301237 475.34883191 346.509578 471.88696289 346.66479492 C471.07990213 346.7041985 470.27284138 346.74360209 469.44132423 346.78419971 C466.7227707 346.91594891 464.00397981 347.04192404 461.28515625 347.16796875 C459.32377972 347.2618553 457.36242047 347.35610332 455.40107727 347.45068359 C451.14328689 347.65522137 446.88538492 347.8571911 442.62738037 348.05722046 C435.80624552 348.37767838 428.985385 348.70373205 422.16455078 349.03051758 C412.31472633 349.50185299 402.46477932 349.97054894 392.61474609 350.4375 C369.94091745 351.5125714 347.2675908 352.59813734 324.59432805 353.68506968 C315.79819902 354.10674674 307.00200158 354.52694084 298.20572376 354.94550419 C291.85325277 355.24794361 285.5008368 355.55152781 279.1484375 355.85546875 C277.94031591 355.9131864 276.73219433 355.97090405 275.487463 356.03037071 C263.7714608 356.59119119 252.05638741 357.16126456 240.34472656 357.80712891 C239.47372881 357.855104 238.60273106 357.90307909 237.70533943 357.95250797 C233.78990254 358.16933746 229.8747907 358.39057924 225.96005249 358.61967468 C218.56982208 359.04416659 211.21596234 359.30283935 203.8125 359.1875 C203.8125 358.5275 203.8125 357.8675 203.8125 357.1875 C202.71897217 357.24808594 201.62544434 357.30867188 200.4987793 357.37109375 C196.3931474 357.59775763 192.28730702 357.82043805 188.18139648 358.04199219 C186.41343469 358.13793184 184.64552908 358.23491315 182.87768555 358.33300781 C164.04168405 359.37678963 164.04168405 359.37678963 154.8125 359.1875 C157.0580493 356.73553032 159.32010652 355.18616923 162.22265625 353.578125 C163.11645996 353.07869385 164.01026367 352.5792627 164.93115234 352.06469727 C165.90262207 351.52772217 166.8740918 350.99074707 167.875 350.4375 C169.9732887 349.26545446 172.07092072 348.09223267 174.16796875 346.91796875 C175.26157715 346.30614746 176.35518555 345.69432617 177.48193359 345.06396484 C182.91051135 342.00546546 188.29762001 338.87602461 193.6875 335.75 C203.24497082 330.21538073 212.85542755 324.78531273 222.50756836 319.41772461 C231.20948137 314.56346902 239.81237945 309.54780352 248.37548828 304.45288086 C249.32278809 303.8935083 250.27008789 303.33413574 251.24609375 302.7578125 C252.08197021 302.26039551 252.91784668 301.76297852 253.77905273 301.25048828 C255.8125 300.1875 255.8125 300.1875 257.8125 300.1875 C253.37392782 291.90886183 248.7037308 283.78094845 243.9375 275.6875 C243.19034144 274.4159861 242.44327291 273.14441929 241.69628906 271.87280273 C234.71857004 260.0014698 227.69511155 248.15726473 220.66748047 236.31542969 C217.81474341 231.50504969 214.96930638 226.69036838 212.125 221.875 C211.60728027 220.99859863 211.08956055 220.12219727 210.55615234 219.21923828 C208.97479836 216.5420728 207.39363009 213.86479771 205.8125 211.1875 C203.43772357 207.16653456 201.0626751 203.14572995 198.6875 199.125 C198.14262939 198.20227295 197.59775879 197.2795459 197.03637695 196.32885742 C196.52679443 195.46623291 196.01721191 194.6036084 195.4921875 193.71484375 C195.02264648 192.91804199 194.55310547 192.12124023 194.06933594 191.30029297 C193.0488228 189.58476835 192.00106614 187.88547119 190.9453125 186.19140625 C189.8125 184.1875 189.8125 184.1875 189.8125 182.1875 C189.1525 182.1875 188.4925 182.1875 187.8125 182.1875 C187.54477783 183.06027588 187.27705566 183.93305176 187.0012207 184.83227539 C185.8494166 188.08330102 184.47902238 190.86777107 182.79296875 193.87109375 C182.18912354 194.95237549 181.58527832 196.03365723 180.96313477 197.14770508 C180.31530029 198.2952124 179.66746582 199.44271973 179 200.625 C178.32503191 201.82879176 177.65047673 203.03281513 176.97631836 204.23706055 C175.25875293 207.30177512 173.53477574 210.36282393 171.80822754 213.42248535 C170.27374945 216.14248274 168.74278359 218.86445717 167.2109375 221.5859375 C162.62669212 229.71904163 158.01871246 237.83821245 153.375 245.9375 C149.42586166 252.84026472 145.58446045 259.79282155 141.8984375 266.83984375 C134.72534113 280.53515059 127.09592332 293.96377031 119.4140625 307.37890625 C119.06287354 307.9922583 118.71168457 308.60561035 118.34985352 309.23754883 C117.46571446 310.77931197 116.5787227 312.31943833 115.69140625 313.859375 C111.85303058 320.65832733 108.15543759 327.53350702 104.48046875 334.421875 C98.76998164 345.12091761 93.02630392 355.7470316 86.69140625 366.08984375 C83.8947891 370.70048283 81.34257281 375.4268844 78.8125 380.1875 C78.0979026 381.52487124 77.3830402 382.86210091 76.66796875 384.19921875 C74.71182069 387.85968694 72.76099163 391.52295102 70.8125 395.1875 C66.9251365 394.59427577 64.04452124 393.42442776 60.625 391.5 C59.66207031 390.95988281 58.69914062 390.41976563 57.70703125 389.86328125 C54.23633945 387.85393336 50.80257355 385.78884275 47.375 383.70703125 C42.29200463 380.69287699 37.09880574 377.83065287 31.8125 375.1875 C31.56757813 375.85136719 31.32265625 376.51523437 31.0703125 377.19921875 C29.49940669 380.9313397 27.61460864 384.44199907 25.6875 388 C25.31496094 388.69287109 24.94242188 389.38574219 24.55859375 390.09960938 C23.64559623 391.79684836 22.72937284 393.49235138 21.8125 395.1875 C17.9251365 394.59427577 15.04452124 393.42442776 11.625 391.5 C10.66207031 390.95988281 9.69914063 390.41976563 8.70703125 389.86328125 C5.21726158 387.84288828 1.76546766 385.76464943 -1.68359375 383.67578125 C-7.29669291 380.33944618 -13.0706032 377.29160058 -18.85546875 374.265625 C-27.2189069 369.88389955 -35.48089771 365.3572979 -43.6875 360.6875 C-50.98567061 356.53586392 -58.31318697 352.47380244 -65.75024414 348.5769043 C-71.73743387 345.43741156 -77.6863945 342.23041421 -83.625 339 C-84.52484619 338.51265381 -85.42469238 338.02530762 -86.35180664 337.52319336 C-90.67662169 335.16612723 -94.94832008 332.75323102 -99.16015625 330.19921875 C-107.55995271 325.11476347 -116.27691131 320.59898852 -124.94165039 315.98706055 C-136.07971795 310.0543808 -147.13316326 304.00672395 -158.09472656 297.75170898 C-163.9026959 294.44792986 -169.75723452 291.26588217 -175.6875 288.1875 C-182.99773774 284.39038145 -190.20288659 280.42701567 -197.375 276.375 C-198.33148438 275.83552734 -199.28796875 275.29605469 -200.2734375 274.74023438 C-205.66343521 271.68032735 -210.95691183 268.51270353 -216.1875 265.1875 C-211.34325985 255.08114594 -206.07463664 245.22873063 -200.625 235.4375 C-199.68805298 233.7527356 -199.68805298 233.7527356 -198.73217773 232.03393555 C-195.13881019 225.60283055 -191.4789845 219.21548114 -187.74414062 212.86547852 C-184.14002417 206.66510942 -180.78985508 200.32572136 -177.42871094 193.99145508 C-166.41906674 173.26024081 -154.78476094 152.85281598 -143.06640625 132.515625 C-139.35987633 125.95021233 -135.78887053 119.31011022 -132.21484375 112.671875 C-126.21249559 101.52534727 -120.13338624 90.43039657 -113.85766602 79.43505859 C-111.35846924 75.0530402 -108.88988868 70.66472328 -106.53515625 66.203125 C-101.35984885 56.44861362 -95.59234273 48.36121617 -88.1875 40.1875 C-87.49140625 39.3109375 -86.7953125 38.434375 -86.078125 37.53125 C-69.72000676 17.25259103 -40.2826499 3.73991469 -14.84765625 0.59375 C-9.89824674 0.09722608 -4.97160356 -0.00275766 0 0 Z " fill="#3AB4BE" transform="translate(320.1875,1.8125)"/>
<path d="M0 0 C29.36756933 -0.38818538 58.73495615 -0.6888516 88.10456808 -0.8681106 C91.57533151 -0.88937148 95.04608986 -0.91137507 98.5168457 -0.93383789 C99.55325152 -0.94052681 99.55325152 -0.94052681 100.61059483 -0.94735085 C111.78458061 -1.02123671 122.95707288 -1.15522025 134.1301739 -1.31159753 C145.60326713 -1.47082882 157.07515104 -1.56377807 168.54938096 -1.59950441 C174.99158137 -1.62164933 181.43040026 -1.67358437 187.87151527 -1.79741096 C193.93915797 -1.913109 200.00203961 -1.94834497 206.07068062 -1.92283058 C208.29326554 -1.92749496 210.51601497 -1.96115521 212.7376442 -2.02649307 C229.0922045 -2.48374933 229.0922045 -2.48374933 233.97004294 1.68274999 C237.42978868 5.74371659 239.86924412 10.21331677 242.08720148 15.04403412 C243.20883292 17.44749203 244.56973463 19.64387688 246.0234375 21.859375 C246.80948509 23.15492172 247.59339353 24.45176911 248.375 25.75 C249.29110433 27.25945601 250.20779661 28.76855531 251.125 30.27734375 C251.82496094 31.42952393 251.82496094 31.42952393 252.5390625 32.60498047 C255.13059152 36.85345969 257.75309976 41.08272002 260.375 45.3125 C260.91882324 46.1900293 261.46264648 47.06755859 262.02294922 47.97167969 C263.12941348 49.75676232 264.23602207 51.54175551 265.34277344 53.32666016 C268.0640269 57.71642524 270.7818594 62.10830703 273.5 66.5 C274.58331652 68.25001041 275.66664986 70.0000104 276.75 71.75 C278.91666667 75.25 281.08333333 78.75 283.25 82.25 C283.78616943 83.11608887 284.32233887 83.98217773 284.87475586 84.87451172 C285.95901504 86.62606997 287.04316203 88.37769768 288.12719727 90.12939453 C290.82045342 94.48112735 293.51559314 98.83166995 296.21484375 103.1796875 C301.91438207 112.36549384 307.57625096 121.57245567 313.1875 130.8125 C318.33835917 139.29340689 323.54587568 147.7348565 328.82763672 156.13476562 C338.05958821 170.82283505 347.18349932 185.57801733 356.296875 200.33984375 C357.3853327 202.10161438 358.47387375 203.86333351 359.5625 205.625 C360.35624023 206.91083984 360.35624023 206.91083984 361.16601562 208.22265625 C363.90980069 212.65827459 366.67755644 217.07661389 369.484375 221.47265625 C370.04310303 222.34905762 370.60183105 223.22545898 371.17749023 224.12841797 C372.24586319 225.80061229 373.31813069 227.47032647 374.39477539 229.13720703 C375.10621704 230.25071533 375.10621704 230.25071533 375.83203125 231.38671875 C376.25202393 232.03858154 376.6720166 232.69044434 377.10473633 233.36206055 C378 235 378 235 378 237 C373.80583871 235.48128869 370.10083006 233.38322423 366.3125 231.0625 C365.65660889 230.66482422 365.00071777 230.26714844 364.32495117 229.85742188 C362.21403873 228.57582307 360.10667789 227.28854585 358 226 C356.6666836 225.18617018 355.33335033 224.37236799 354 223.55859375 C351.10080158 221.78770047 348.20263915 220.0151201 345.3046875 218.2421875 C339.30871551 214.57602523 333.30940746 210.91537588 327.30551147 207.26220703 C326.07565227 206.513494 324.84617021 205.76416105 323.61709595 205.01416016 C316.82101959 200.86766182 310.00657634 196.78393991 303 193 C307.3115651 200.20074804 311.64490172 207.38799858 316 214.5625 C316.59039062 215.53896484 317.18078125 216.51542969 317.7890625 217.52148438 C321.03393323 222.86408542 324.36073152 228.10787804 327.93359375 233.23803711 C329 235 329 235 329 237 C324.80585648 235.48129512 321.10077454 233.38330387 317.3125 231.0625 C316.65805908 230.66554932 316.00361816 230.26859863 315.3293457 229.85961914 C313.21720967 228.57690412 311.10849665 227.28868686 309 226 C307.64334231 225.17429324 306.28657158 224.34877218 304.9296875 223.5234375 C298.58406886 219.6573503 292.24690166 215.77860874 285.93623352 211.8556366 C283.55132116 210.37353851 281.16442826 208.89464473 278.77749634 207.415802 C277.59529517 206.68200307 276.41411528 205.94655617 275.23397827 205.20944214 C273.57512562 204.17341755 271.91263719 203.14322136 270.25 202.11328125 C269.28578125 201.51298096 268.3215625 200.91268066 267.328125 200.29418945 C265.15259962 198.8380438 265.15259962 198.8380438 263 199 C262.7097998 199.51046875 262.41959961 200.0209375 262.12060547 200.546875 C256.19693154 210.95887997 250.23342414 221.34594548 244.1875 231.6875 C234.3870721 248.45657729 224.64981447 265.26010346 215.125 282.1875 C211.3780607 288.84450443 207.5787253 295.45497868 203.60986328 301.98193359 C199.64138271 308.53454105 195.82579592 315.17602774 192 321.8125 C191.66027161 322.40132965 191.32054321 322.9901593 190.97052002 323.59683228 C187.36135548 329.7310592 187.36135548 329.7310592 184 336 C280.03 336.33 376.06 336.66 475 337 C476.15791153 415.73798403 476.15791153 415.73798403 476.1343255 452.65153289 C476.13168789 458.12798455 476.13416732 463.60443506 476.13571167 469.08088684 C476.13749144 478.18014847 476.13523025 487.27940177 476.13037109 496.37866211 C476.12482515 506.8853482 476.12678057 517.39201519 476.1321975 527.89870089 C476.13672004 537.04141472 476.13738671 546.18412278 476.13475883 555.32683736 C476.13320527 560.73893857 476.1329792 566.15103071 476.13629532 571.56313133 C476.13916499 576.58801381 476.13721545 581.61287091 476.13140106 586.63775063 C476.1300733 588.4805408 476.13046784 590.32333309 476.13266373 592.16612244 C476.13537179 594.66698605 476.13199978 597.16776665 476.12698364 599.66862488 C476.12921436 600.40529945 476.13144509 601.14197402 476.13374341 601.90097207 C476.11415737 606.88584263 476.11415737 606.88584263 475 608 C473.48431522 608.09953905 471.96399459 608.12923052 470.44504642 608.13142776 C469.45442143 608.13526891 468.46379643 608.13911005 467.44315249 608.1430676 C466.34164132 608.14220112 465.24013016 608.14133463 464.10523987 608.14044189 C462.9451061 608.14341302 461.78497233 608.14638414 460.589683 608.1494453 C457.35443325 608.15664917 454.11921575 608.15930646 450.88395917 608.16004276 C447.39961292 608.16188871 443.91527829 608.16943432 440.43093872 608.17617798 C432.79986902 608.18978811 425.16880456 608.19579188 417.53772473 608.20018864 C412.76840875 608.20294994 407.99909481 608.20718742 403.2297802 608.21169281 C390.01653069 608.2238954 376.80328283 608.23418857 363.59002781 608.2375679 C362.32006603 608.23789725 362.32006603 608.23789725 361.02444845 608.23823325 C360.17578475 608.23845153 359.32712104 608.23866981 358.45274025 608.2388947 C356.73306056 608.23933816 355.01338086 608.23978473 353.29370117 608.24023438 C352.44068182 608.2404558 351.58766247 608.24067723 350.70879405 608.24090537 C336.92465904 608.24484294 323.14057723 608.26226054 309.35646272 608.2855939 C295.19276661 608.30937508 281.02909709 608.32177304 266.8653807 608.32293582 C258.91815961 608.32384948 250.97100758 608.3295222 243.02380562 608.34775543 C236.24677225 608.36324884 229.46982925 608.36822344 222.69278152 608.36001733 C219.2414474 608.35614145 215.79029469 608.3568875 212.33898354 608.37107468 C173.22611219 608.50449965 137.63960633 599.66656785 108.8046875 571.828125 C94.29713967 557.19934418 84.51801352 539.37258278 77.16796875 520.23046875 C74.95009115 514.64511365 72.12630141 509.48327906 69.1875 504.25 C65.77606475 498.09408079 62.40779466 491.94637642 59.3125 485.625 C56.89057097 480.68708644 54.28881081 475.89805277 51.5625 471.125 C48.60623556 465.94688512 45.81104935 460.72929311 43.1875 455.375 C38.12614844 445.07057453 32.5364532 435.05447241 27 425 C20.47904132 413.15761701 13.98996315 401.33673262 8.12431169 389.15280217 C7.24933384 387.47741781 6.29150187 385.84521137 5.30306983 384.23415548 C0.49005662 376.14013025 -1.01136567 370.02500257 -0.87542725 360.6837616 C-0.88969045 358.77058993 -0.88969045 358.77058993 -0.9042418 356.81876832 C-0.92934194 353.31720976 -0.91142894 349.81705387 -0.88575459 346.31554949 C-0.86566206 342.52479808 -0.88623172 338.73422548 -0.90145874 334.94348145 C-0.92479165 327.53418625 -0.91079574 320.12541921 -0.88352022 312.71615555 C-0.85293639 304.08072278 -0.8578991 295.445417 -0.86374763 286.80994538 C-0.8728007 271.40159149 -0.84704378 255.99348912 -0.80273438 240.58520508 C-0.75977712 225.64436198 -0.74565686 210.70383651 -0.76171875 195.76293945 C-0.77919256 179.47299067 -0.78093184 163.18318552 -0.75513482 146.89324266 C-0.7524018 145.15596888 -0.74967546 143.41869508 -0.74695587 141.68142128 C-0.74559452 140.82674352 -0.74423317 139.97206577 -0.74283056 139.09148869 C-0.73421757 133.0757809 -0.73644827 127.06013292 -0.74260712 121.04442406 C-0.74966126 113.71467301 -0.7384165 106.38521269 -0.70409927 99.05553439 C-0.687006 95.3177008 -0.67777718 91.5803017 -0.69023514 87.84243965 C-0.70345157 83.78831567 -0.67783425 79.73535854 -0.64837646 75.68132019 C-0.65816583 74.50340556 -0.6679552 73.32549093 -0.67804122 72.11188191 C-0.59506632 65.76762135 0.04901574 61.62136026 3.92904449 56.49948484 C5.19373348 55.03585673 5.19373348 55.03585673 5 53 C4.1850708 52.69537842 3.3701416 52.39075684 2.53051758 52.0769043 C0 50 0 50 -0.44692993 47.79873657 C-0.58051427 44.77817675 -0.56062977 41.79228751 -0.48828125 38.76953125 C-0.48120651 37.66397385 -0.47413177 36.55841644 -0.46684265 35.4193573 C-0.43882049 31.88305419 -0.37606379 28.34832574 -0.3125 24.8125 C-0.28742742 22.41734055 -0.26461245 20.02215632 -0.24414062 17.62695312 C-0.18896818 11.75076346 -0.10526308 5.8754942 0 0 Z " fill="#37B3AD" transform="translate(0,378)"/>
<path d="M0 0 C1.49037625 2.9807525 1.04122127 5.98157823 0.94580078 9.2409668 C0.91916855 10.3610614 0.91916855 10.3610614 0.89199829 11.50378418 C0.83160313 13.98575495 0.76359257 16.4674533 0.6953125 18.94921875 C0.65106891 20.68161597 0.60720038 22.4140228 0.56369019 24.1464386 C0.47103289 27.79083505 0.37479099 31.43511376 0.27587891 35.0793457 C0.15034315 39.70966057 0.03200278 44.34012218 -0.08375359 48.97069073 C-0.17399583 52.55797225 -0.26742096 56.14516553 -0.36182022 59.73233986 C-0.40644138 61.43643999 -0.45029467 63.14056042 -0.49331284 64.84470177 C-0.63070775 70.23110413 -0.79276619 75.61580834 -1 81 C-1.04093025 82.07267907 -1.04093025 82.07267907 -1.08268738 83.16702843 C-1.16782876 85.21243105 -1.27052009 87.25608351 -1.38037109 89.30029297 C-1.43921478 90.45584686 -1.49805847 91.61140076 -1.5586853 92.80197144 C-2.32508499 98.35575907 -4.88023796 102.70288686 -7.75 107.4375 C-8.94345318 109.51910438 -10.13613992 111.60114834 -11.328125 113.68359375 C-11.93978516 114.73015137 -12.55144531 115.77670898 -13.18164062 116.85498047 C-16.06582202 121.84343706 -18.77646757 126.92264354 -21.5 132 C-22.58372739 134.0030957 -23.6683645 136.00569948 -24.75390625 138.0078125 C-25.55852295 139.4932959 -25.55852295 139.4932959 -26.37939453 141.00878906 C-27.99064328 143.98272995 -29.60264495 146.95626155 -31.21484375 149.9296875 C-36.84708296 160.31938769 -42.46475571 170.7166702 -48.0625 181.125 C-63.83318256 210.43396549 -63.83318256 210.43396549 -71.875 224.6875 C-72.23698486 225.32929199 -72.59896973 225.97108398 -72.97192383 226.63232422 C-73.4924231 227.55489014 -73.4924231 227.55489014 -74.0234375 228.49609375 C-76.77182225 233.36737541 -76.77182225 233.36737541 -79.5 238.25 C-79.9640625 239.08015625 -80.428125 239.9103125 -80.90625 240.765625 C-81.99467142 242.98911448 -82.69615752 244.54595097 -83 247 C-82.02370966 249.55466202 -82.02370966 249.55466202 -80.421875 252.19140625 C-79.84381104 253.208396 -79.26574707 254.22538574 -78.67016602 255.27319336 C-78.03651123 256.35866455 -77.40285645 257.44413574 -76.75 258.5625 C-76.10538818 259.68857666 -75.46077637 260.81465332 -74.79663086 261.97485352 C-72.87615585 265.32350204 -70.93977264 268.66250286 -69 272 C-68.04734382 273.65316593 -67.0954265 275.30675806 -66.14453125 276.9609375 C-63.9489011 280.77266981 -61.73827647 284.57550439 -59.52490234 288.37695312 C-56.46457754 293.64114295 -53.41964495 298.91423064 -50.375 304.1875 C-49.72394287 305.31494629 -49.07288574 306.44239258 -48.40209961 307.60400391 C-45.10596853 313.32009526 -41.83452247 319.04739329 -38.625 324.8125 C-34.0978233 332.93757921 -29.35575428 340.93716927 -24.63763428 348.95214844 C-19.05389312 358.4413482 -13.56549676 367.97810249 -8.19824219 377.59204102 C-7.71516602 378.45498779 -7.23208984 379.31793457 -6.734375 380.20703125 C-6.32413086 380.9441333 -5.91388672 381.68123535 -5.49121094 382.44067383 C-4.10766367 384.91087247 -4.10766367 384.91087247 -2.73532104 386.75189209 C0.95194946 392.03271689 1.69866987 395.91975199 1.5234375 402.2890625 C1.51909698 403.17470383 1.51475647 404.06034515 1.51028442 404.9728241 C1.48968303 407.85772462 1.4329288 410.74062849 1.375 413.625 C1.35290324 415.62457286 1.33274231 417.62416799 1.31445312 419.6237793 C1.24853799 425.75011214 1.13039572 431.87474162 1 438 C0.98005981 438.97144958 0.96011963 439.94289917 0.9395752 440.94378662 C0.69748834 452.63153223 0.38661722 464.31613957 0 476 C-2.54653344 473.67502723 -4.17478561 471.24403174 -5.8984375 468.265625 C-6.45370117 467.31051025 -7.00896484 466.35539551 -7.58105469 465.37133789 C-8.17305664 464.34129639 -8.76505859 463.31125488 -9.375 462.25 C-10.3016748 460.64983032 -10.3016748 460.64983032 -11.24707031 459.01733398 C-16.01611658 450.76260808 -20.71036625 442.46609152 -25.38427734 434.15722656 C-28.91423824 427.8901187 -32.52202474 421.67612907 -36.19238281 415.49047852 C-39.71084343 409.5398077 -43.11007071 403.52463009 -46.5 397.5 C-50.21324485 390.90219198 -53.95004308 384.32417484 -57.8125 377.8125 C-65.3826197 365.04685752 -72.66990524 352.11445765 -80.01467896 339.21841431 C-84.52306023 331.30389185 -89.07915727 323.41934661 -93.6875 315.5625 C-98.90428832 306.64673893 -104.02482636 297.68194837 -109.08666992 288.67749023 C-113.72022653 280.45269759 -118.46461596 272.29501022 -123.24414062 264.15429688 C-124.32748327 262.30714037 -125.40524299 260.45669465 -126.4765625 258.60253906 C-127.48514861 256.8795378 -128.52150232 255.17246831 -129.5859375 253.48339844 C-130.06289063 252.70254883 -130.53984375 251.92169922 -131.03125 251.1171875 C-131.45986328 250.44026855 -131.88847656 249.76334961 -132.33007812 249.06591797 C-133.29085567 246.10305368 -132.37145147 244.73580106 -131 242 C-130.62439941 241.23115479 -130.24879883 240.46230957 -129.86181641 239.67016602 C-129.44593262 238.87280029 -129.03004883 238.07543457 -128.6015625 237.25390625 C-128.12855713 236.34584229 -127.65555176 235.43777832 -127.16821289 234.50219727 C-126.65895264 233.53209717 -126.14969238 232.56199707 -125.625 231.5625 C-125.09189209 230.54406006 -124.55878418 229.52562012 -124.00952148 228.47631836 C-118.95950548 218.86222148 -113.7612849 209.3320384 -108.53857422 199.81103516 C-105.88627727 194.9651851 -103.25525541 190.10783975 -100.625 185.25 C-100.0882666 184.25895264 -99.5515332 183.26790527 -98.99853516 182.24682617 C-94.9660724 174.79605731 -90.95045234 167.33629033 -86.9375 159.875 C-82.16890649 151.00874451 -77.3685309 142.16072502 -72.53881836 133.32763672 C-68.66380093 126.23379796 -64.82741027 119.11962074 -61 112 C-44.90712518 82.0769311 -44.90712518 82.0769311 -37.25 68.625 C-34.3311647 63.49288213 -31.60430388 58.29843346 -29 53 C-26.13742679 47.17670021 -23.08829073 41.5075176 -19.86523438 35.87670898 C-15.05502314 27.42515151 -10.52648871 18.81869328 -5.96459961 10.23144531 C-5.64414169 9.6297905 -5.32368378 9.02813568 -4.99351501 8.4082489 C-4.11012354 6.74957517 -3.22882984 5.08978469 -2.34765625 3.42993164 C-1 1 -1 1 0 0 Z " fill="#2EAE69" transform="translate(627,603)"/>
<path d="M0 0 C2.38628754 3.11553249 4.30334514 6.23984639 6.15234375 9.70703125 C6.75780029 10.83931152 7.36325684 11.9715918 7.98706055 13.13818359 C8.6373235 14.3628939 9.28746712 15.58766757 9.9375 16.8125 C10.61284956 18.07903882 11.28838891 19.34547647 11.96411133 20.61181641 C16.58327003 29.28014245 21.13203344 37.98423945 25.65454102 46.70336914 C29.45188158 54.00379609 33.38451048 61.22370931 37.35131836 68.43310547 C42.07046708 77.04814377 46.56146384 85.77661022 51.05664062 94.51000977 C54.61635378 101.40223092 58.31242535 108.15849569 62.2265625 114.85546875 C64.19620246 118.34789202 65.98407659 121.90174162 67.75 125.5 C72.83354385 135.84583575 78.44087983 145.90436325 84 156 C95.84142835 177.50461865 95.84142835 177.50461865 101.20410156 188.44677734 C103.31753178 192.72763053 105.59440849 196.87696054 108 201 C111.97115358 207.84093254 115.5050183 214.85039183 118.98681641 221.95019531 C120.01183263 224.02393898 121.05547109 226.08724117 122.10546875 228.1484375 C125.053167 233.94752647 127.94411241 239.68420156 130.3125 245.75 C136.32005398 260.49764088 144.5382616 274.0230021 155 286 C155.64066406 286.74121094 156.28132812 287.48242188 156.94140625 288.24609375 C174.02142872 306.58037273 199.04613208 318.04984692 223.32592773 322.70825195 C225.22931406 323.08208995 227.11704904 323.53402788 229 324 C229.33 324.66 229.66 325.32 230 326 C224.34817265 326.07537316 218.69665148 326.12916571 213.04443359 326.16479492 C211.13031912 326.17968141 209.21623748 326.19999725 207.30224609 326.22631836 C170.27197387 326.72199917 135.85390297 315.94257476 108.8046875 289.828125 C94.29713967 275.19934418 84.51801352 257.37258278 77.16796875 238.23046875 C74.95009115 232.64511365 72.12630141 227.48327906 69.1875 222.25 C65.77606475 216.09408079 62.40779466 209.94637642 59.3125 203.625 C56.89057097 198.68708644 54.28881081 193.89805277 51.5625 189.125 C48.60623556 183.94688512 45.81104935 178.72929311 43.1875 173.375 C38.12614844 163.07057453 32.5364532 153.05447241 27 143 C13.48901001 118.46337496 13.48901001 118.46337496 8.12506104 107.12124634 C6.99140152 104.88669596 6.99140152 104.88669596 5.29632568 102.51815796 C-1.35903163 92.13935831 -0.91047235 82.57637547 -0.68359375 70.60546875 C-0.67051207 68.56140348 -0.66056007 66.51731603 -0.65357971 64.47322083 C-0.62705636 59.13473197 -0.5584722 53.79761033 -0.48065186 48.45965576 C-0.40860043 42.99607836 -0.37697925 37.53227656 -0.34179688 32.06835938 C-0.26708384 21.3783108 -0.14786401 10.68926979 0 0 Z " fill="#3FB6E2" transform="translate(0,660)"/>
<path d="M0 0 C6.04206084 2.77043803 11.75938274 5.95651455 17.375 9.5 C17.96941895 9.86730225 18.56383789 10.23460449 19.17626953 10.61303711 C26.21394836 15.13155815 29.74713742 21.64537304 34 28.625 C37.46970897 34.28573735 40.94553784 39.93946956 44.51953125 45.53515625 C45.07318359 46.40253418 45.62683594 47.26991211 46.19726562 48.16357422 C47.25886248 49.82239954 48.32386957 51.47904827 49.39257812 53.13330078 C50.10510742 54.24874268 50.10510742 54.24874268 50.83203125 55.38671875 C51.25202393 56.03858154 51.6720166 56.69044434 52.10473633 57.36206055 C53 59 53 59 53 61 C48.80585648 59.48129512 45.10077454 57.38330387 41.3125 55.0625 C40.33083862 54.46707397 40.33083862 54.46707397 39.3293457 53.85961914 C37.21720967 52.57690412 35.10849665 51.28868686 33 50 C31.64334231 49.17429324 30.28657158 48.34877218 28.9296875 47.5234375 C26.01680883 45.74998247 23.1089013 43.96865866 20.203125 42.18359375 C16.78188273 40.08382335 13.34984993 38.00288892 9.91044617 35.93299866 C7.51138253 34.48730037 5.11670618 33.0344286 2.7225647 31.58059692 C1.53642194 30.86256009 0.34841748 30.14758934 -0.84146118 29.4357605 C-2.51502798 28.43395709 -4.18150423 27.42033744 -5.84765625 26.40625 C-6.81711182 25.82166016 -7.78656738 25.23707031 -8.78540039 24.63476562 C-11 23 -11 23 -12 20 C-11.11962891 17.93115234 -11.11962891 17.93115234 -9.7265625 15.5859375 C-9.2315625 14.74289062 -8.7365625 13.89984375 -8.2265625 13.03125 C-7.69804687 12.1546875 -7.16953125 11.278125 -6.625 10.375 C-6.10421875 9.49070312 -5.5834375 8.60640625 -5.046875 7.6953125 C-1.20365367 1.20365367 -1.20365367 1.20365367 0 0 Z " fill="#3BB4C4" transform="translate(276,554)"/>
<path d="M0 0 C0.66 0.33 1.32 0.66 2 1 C-1.14217018 6.87136519 -4.30664813 12.72910438 -7.51171875 18.56640625 C-9.58502462 22.34936805 -11.58259761 26.14237109 -13.45703125 30.02734375 C-19.3748176 41.82428861 -27.05948551 46.70611177 -39 52 C-41.31169188 49.85279954 -42.90197989 47.714762 -44.48046875 44.98828125 C-44.92197266 44.23095703 -45.36347656 43.47363281 -45.81835938 42.69335938 C-46.49608398 41.51483398 -46.49608398 41.51483398 -47.1875 40.3125 C-47.65091797 39.51521484 -48.11433594 38.71792969 -48.59179688 37.89648438 C-49.73205177 35.93336513 -50.86793773 33.96785129 -52 32 C-49.13897393 28.91470302 -46.31278339 26.82552092 -42.66015625 24.75 C-41.60626709 24.14687988 -40.55237793 23.54375977 -39.46655273 22.92236328 C-38.34321533 22.2879834 -37.21987793 21.65360352 -36.0625 21 C-34.90077203 20.33769215 -33.73939835 19.67476248 -32.57836914 19.01123047 C-30.21346131 17.66109893 -27.84653664 16.31462226 -25.47753906 14.97167969 C-21.22068691 12.55814852 -16.96869621 10.13617736 -12.71850586 7.7109375 C-10.89248724 6.66960514 -9.06521332 5.6304703 -7.23657227 4.59375 C-6.42502686 4.13226563 -5.61348145 3.67078125 -4.77734375 3.1953125 C-4.06827881 2.79328613 -3.35921387 2.39125977 -2.62866211 1.97705078 C-1.02170827 1.10257487 -1.02170827 1.10257487 0 0 Z " fill="#2CAE5F" transform="translate(881,115)"/>
<path d="" fill="#35B29A" transform="translate(0,0)"/>
<path d="" fill="#38B5BA" transform="translate(0,0)"/>
</svg>
